ply
format ascii 1.0
comment VCGLIB generated
element vertex 216
property float x
property float y
property float z
property float nx
property float ny
property float nz
property float texture_u
property float texture_v
element face 72
property list uchar int vertex_indices
end_header
-4.371139e-08 1 0 -2.753645e-08 0.6299605 -3.003244e-08 0.164309 0.999023
4.371139e-08 -1 0 2.753645e-08 -0.6299605 0 0.000977 0.335691
-0.4999999 -1 0 -0.3149803 -5.50729e-08 0 0.000977 0.497642
-0.4924038 -1 0.08682405 -0.310195 -5.423622e-08 0.05469576 0.081952 0.416667
-0.4698462 -1 0.17101 -0.2959847 -5.17516e-08 0.1077296 0.002358 0.499023
-0.4330127 -1 0.25 -0.2727809 -4.769454e-08 0.1574901 0.084714 0.416667
-0.3830222 -1 0.3213938 -0.2412889 -4.21883e-08 0.2024654 0.083333 0.415286
-0.3213938 -1 0.3830222 -0.2024654 -3.540018e-08 0.2412889 0.248619 0.416667
-0.25 -1 0.4330127 -0.1574902 -2.753645e-08 0.2727809 0.250000 0.418048
-0.17101 -1 0.4698462 -0.1077296 -1.883605e-08 0.2959846 0.332357 0.497642
-0.08682405 -1 0.4924038 -0.05469576 -9.563311e-09 0.310195 0.250000 0.415286
4.371139e-08 -1 0.4999999 0 0 0.3149803 0.334310 0.335691
0.08682415 -1 0.4924038 0.05469576 9.563311e-09 0.310195 0.416667 0.418048
0.1710101 -1 0.4698462 0.1077296 1.883605e-08 0.2959846 0.499023 0.497642
0.2500001 -1 0.4330127 0.1574902 2.753645e-08 0.2727809 0.497642 0.334310
0.3213939 -1 0.3830222 0.2024654 3.540018e-08 0.2412889 0.500977 0.335691
0.3830223 -0.9999999 0.3213938 0.2412889 4.21883e-08 0.2024654 0.502358 0.499023
0.4330128 -0.9999999 0.25 0.2727809 4.769454e-08 0.1574901 0.584714 0.416667
0.4698463 -0.9999999 0.17101 0.2959847 5.17516e-08 0.1077296 0.583333 0.415286
0.4924039 -0.9999999 0.08682405 0.310195 5.423622e-08 0.05469576 0.748619 0.416667
0.5 -0.9999999 6.123235e-17 0.3149803 5.50729e-08 0 0.750000 0.418048
0.4924039 -0.9999999 -0.08682405 0.310195 5.423622e-08 -0.05469576 0.832357 0.497642
0.4698463 -0.9999999 -0.17101 0.2959847 5.17516e-08 -0.1077296 0.750000 0.415286
0.4330128 -0.9999999 -0.25 0.2727809 4.769454e-08 -0.1574901 0.915286 0.416667
0.3830223 -0.9999999 -0.3213938 0.2412889 4.21883e-08 -0.2024654 0.916667 0.418048
0.3213939 -1 -0.3830222 0.2024654 3.540018e-08 -0.2412889 0.918048 0.416667
0.2500001 -1 -0.4330127 0.1574902 2.753645e-08 -0.2727809 0.916667 0.415286
0.1710101 -1 -0.4698462 0.1077296 1.883605e-08 -0.2959846 0.081952 0.250000
0.08682415 -1 -0.4924038 0.05469576 9.563311e-09 -0.310195 0.083333 0.251381
4.371139e-08 -1 -0.4999999 0 0 -0.3149803 0.165690 0.330976
-0.08682405 -1 -0.4924038 -0.05469576 -9.563311e-09 -0.310195 0.083333 0.248619
-0.17101 -1 -0.4698462 -0.1077296 -1.883605e-08 -0.2959846 0.167643 0.169024
-0.25 -1 -0.4330127 -0.1574902 -2.753645e-08 -0.2727809 0.250000 0.251381
-0.3213938 -1 -0.3830222 -0.2024654 -3.540018e-08 -0.2412889 0.251381 0.250000
-0.3830222 -1 -0.3213938 -0.2412889 -4.21883e-08 -0.2024654 0.250000 0.248619
-0.4330127 -1 -0.25 -0.2727809 -4.769454e-08 -0.1574901 0.334310 0.169024
-0.4698462 -1 -0.17101 -0.2959847 -5.17516e-08 -0.1077296 0.335691 0.332357
-0.4924038 -1 -0.08682405 -0.310195 -5.423622e-08 -0.05469576 0.418048 0.250000
4.371139e-08 -1 0 2.753645e-08 -0.6299605 0 0.164309 0.499023
-0.4924038 -1 0.08682405 -0.310195 -5.423622e-08 0.05469576 0.083333 0.418048
4.371139e-08 -1 0 2.753645e-08 -0.6299605 0 0.165690 0.497642
-0.4698462 -1 0.17101 -0.2959847 -5.17516e-08 0.1077296 0.165690 0.335691
4.371139e-08 -1 0 2.753645e-08 -0.6299605 0 0.164309 0.334310
-0.4330127 -1 0.25 -0.2727809 -4.769454e-08 0.1574901 0.002358 0.334310
4.371139e-08 -1 0 2.753645e-08 -0.6299605 0 0.167643 0.335691
-0.3830222 -1 0.3213938 -0.2412889 -4.21883e-08 0.2024654 0.167643 0.497642
4.371139e-08 -1 0 2.753645e-08 -0.6299605 0 0.169024 0.499023
-0.3213938 -1 0.3830222 -0.2024654 -3.540018e-08 0.2412889 0.330976 0.499023
4.371139e-08 -1 0 2.753645e-08 -0.6299605 0 0.332357 0.335691
-0.25 -1 0.4330127 -0.1574902 -2.753645e-08 0.2727809 0.251381 0.416667
4.371139e-08 -1 0 2.753645e-08 -0.6299605 0 0.330976 0.334310
-0.17101 -1 0.4698462 -0.1077296 -1.883605e-08 0.2959846 0.169024 0.334310
4.371139e-08 -1 0 2.753645e-08 -0.6299605 0 0.334310 0.497642
-0.08682405 -1 0.4924038 -0.05469576 -9.563311e-09 0.310195 0.415286 0.416667
4.371139e-08 -1 0 2.753645e-08 -0.6299605 0 0.335691 0.499023
4.371139e-08 -1 0.4999999 0 0 0.3149803 0.497642 0.499023
4.371139e-08 -1 0 2.753645e-08 -0.6299605 0 0.499023 0.335691
0.08682415 -1 0.4924038 0.05469576 9.563311e-09 0.310195 0.418048 0.416667
4.371139e-08 -1 0 2.753645e-08 -0.6299605 0 0.335691 0.334310
0.1710101 -1 0.4698462 0.1077296 1.883605e-08 0.2959846 0.416667 0.415286
4.371139e-08 -1 0 2.753645e-08 -0.6299605 0 0.500977 0.497642
0.2500001 -1 0.4330127 0.1574902 2.753645e-08 0.2727809 0.581952 0.416667
4.371139e-08 -1 0 2.753645e-08 -0.6299605 0 0.664309 0.499023
0.3213939 -1 0.3830222 0.2024654 3.540018e-08 0.2412889 0.583333 0.418048
4.371139e-08 -1 0 2.753645e-08 -0.6299605 0 0.665690 0.497642
0.3830223 -0.9999999 0.3213938 0.2412889 4.21883e-08 0.2024654 0.665690 0.335691
4.371139e-08 -1 0 2.753645e-08 -0.6299605 0 0.664309 0.334310
0.4330128 -0.9999999 0.25 0.2727809 4.769454e-08 0.1574901 0.502358 0.334310
4.371139e-08 -1 0 2.753645e-08 -0.6299605 0 0.667643 0.335691
0.4698463 -0.9999999 0.17101 0.2959847 5.17516e-08 0.1077296 0.667643 0.497642
4.371139e-08 -1 0 2.753645e-08 -0.6299605 0 0.669024 0.499023
0.4924039 -0.9999999 0.08682405 0.310195 5.423622e-08 0.05469576 0.830976 0.499023
4.371139e-08 -1 0 2.753645e-08 -0.6299605 0 0.832357 0.335691
0.5 -0.9999999 6.123235e-17 0.3149803 5.50729e-08 0 0.751381 0.416667
4.371139e-08 -1 0 2.753645e-08 -0.6299605 0 0.830976 0.334310
0.4924039 -0.9999999 -0.08682405 0.310195 5.423622e-08 -0.05469576 0.669024 0.334310
4.371139e-08 -1 0 2.753645e-08 -0.6299605 0 0.834310 0.335691
0.4698463 -0.9999999 -0.17101 0.2959847 5.17516e-08 -0.1077296 0.834310 0.497642
4.371139e-08 -1 0 2.753645e-08 -0.6299605 0 0.835691 0.499023
0.4330128 -0.9999999 -0.25 0.2727809 4.769454e-08 -0.1574901 0.997642 0.499023
4.371139e-08 -1 0 2.753645e-08 -0.6299605 0 0.999023 0.497642
0.3830223 -0.9999999 -0.3213938 0.2412889 4.21883e-08 -0.2024654 0.999023 0.335691
4.371139e-08 -1 0 2.753645e-08 -0.6299605 0 0.997642 0.334310
0.3213939 -1 -0.3830222 0.2024654 3.540018e-08 -0.2412889 0.835691 0.334310
4.371139e-08 -1 0 2.753645e-08 -0.6299605 0 0.000977 0.169024
0.2500001 -1 -0.4330127 0.1574902 2.753645e-08 -0.2727809 0.000977 0.330976
4.371139e-08 -1 0 2.753645e-08 -0.6299605 0 0.002358 0.332357
0.1710101 -1 -0.4698462 0.1077296 1.883605e-08 -0.2959846 0.164309 0.332357
4.371139e-08 -1 0 2.753645e-08 -0.6299605 0 0.165690 0.169024
0.08682415 -1 -0.4924038 0.05469576 9.563311e-09 -0.310195 0.084714 0.250000
4.371139e-08 -1 0 2.753645e-08 -0.6299605 0 0.164309 0.167643
4.371139e-08 -1 -0.4999999 0 0 -0.3149803 0.002358 0.167643
4.371139e-08 -1 0 2.753645e-08 -0.6299605 0 0.167643 0.330976
-0.08682405 -1 -0.4924038 -0.05469576 -9.563311e-09 -0.310195 0.248619 0.250000
4.371139e-08 -1 0 2.753645e-08 -0.6299605 0 0.169024 0.332357
-0.17101 -1 -0.4698462 -0.1077296 -1.883605e-08 -0.2959846 0.330976 0.332357
4.371139e-08 -1 0 2.753645e-08 -0.6299605 0 0.332357 0.330976
-0.25 -1 -0.4330127 -0.1574902 -2.753645e-08 -0.2727809 0.332357 0.169024
4.371139e-08 -1 0 2.753645e-08 -0.6299605 0 0.330976 0.167643
-0.3213938 -1 -0.3830222 -0.2024654 -3.540018e-08 -0.2412889 0.169024 0.167643
4.371139e-08 -1 0 2.753645e-08 -0.6299605 0 0.334310 0.330976
-0.3830222 -1 -0.3213938 -0.2412889 -4.21883e-08 -0.2024654 0.415286 0.250000
4.371139e-08 -1 0 2.753645e-08 -0.6299605 0 0.497642 0.332357
-0.4330127 -1 -0.25 -0.2727809 -4.769454e-08 -0.1574901 0.416667 0.251381
4.371139e-08 -1 0 2.753645e-08 -0.6299605 0 0.499023 0.330976
-0.4698462 -1 -0.17101 -0.2959847 -5.17516e-08 -0.1077296 0.499023 0.169024
4.371139e-08 -1 0 2.753645e-08 -0.6299605 0 0.335691 0.167643
-0.4999999 -1 0 -0.3149803 -5.50729e-08 0 0.497642 0.167643
-0.4924038 -1 -0.08682405 -0.310195 -5.423622e-08 -0.05469576 0.416667 0.248619
-0.4999999 -1 0 -0.3149803 -5.50729e-08 0 0.000977 0.999023
-0.4924038 -1 0.08682405 -0.310195 -5.423622e-08 0.05469576 0.000977 0.835691
-4.371139e-08 1 0 -2.753645e-08 0.6299605 -3.003244e-08 0.002358 0.834310
-0.4924038 -1 0.08682405 -0.310195 -5.423622e-08 0.05469576 0.165690 0.834310
-0.4698462 -1 0.17101 -0.2959847 -5.17516e-08 0.1077296 0.165690 0.997642
-4.371139e-08 1 0 -2.753645e-08 0.6299605 -3.003244e-08 0.330976 0.999023
-0.4698462 -1 0.17101 -0.2959847 -5.17516e-08 0.1077296 0.167643 0.999023
-0.4330127 -1 0.25 -0.2727809 -4.769454e-08 0.1574901 0.167643 0.835691
-4.371139e-08 1 0 -2.753645e-08 0.6299605 -3.003244e-08 0.169024 0.834310
-0.4330127 -1 0.25 -0.2727809 -4.769454e-08 0.1574901 0.332357 0.834310
-0.3830222 -1 0.3213938 -0.2412889 -4.21883e-08 0.2024654 0.332357 0.997642
-4.371139e-08 1 0 -2.753645e-08 0.6299605 -3.003244e-08 0.497642 0.999023
-0.3830222 -1 0.3213938 -0.2412889 -4.21883e-08 0.2024654 0.334310 0.999023
-0.3213938 -1 0.3830222 -0.2024654 -3.540018e-08 0.2412889 0.334310 0.835691
-4.371139e-08 1 0 -2.753645e-08 0.6299605 -3.003244e-08 0.335691 0.834310
-0.3213938 -1 0.3830222 -0.2024654 -3.540018e-08 0.2412889 0.499023 0.834310
-0.25 -1 0.4330127 -0.1574902 -2.753645e-08 0.2727809 0.499023 0.997642
-4.371139e-08 1 0 -2.753645e-08 0.6299605 -3.003244e-08 0.500977 0.835691
-0.25 -1 0.4330127 -0.1574902 -2.753645e-08 0.2727809 0.664309 0.999023
-0.17101 -1 0.4698462 -0.1077296 -1.883605e-08 0.2959846 0.500977 0.999023
-4.371139e-08 1 0 -2.753645e-08 0.6299605 -3.003244e-08 0.502358 0.834310
-0.17101 -1 0.4698462 -0.1077296 -1.883605e-08 0.2959846 0.665690 0.834310
-0.08682405 -1 0.4924038 -0.05469576 -9.563311e-09 0.310195 0.665690 0.997642
-4.371139e-08 1 0 -2.753645e-08 0.6299605 -3.003244e-08 0.830976 0.999023
-0.08682405 -1 0.4924038 -0.05469576 -9.563311e-09 0.310195 0.667643 0.999023
4.371139e-08 -1 0.4999999 0 0 0.3149803 0.667643 0.835691
-4.371139e-08 1 0 -2.753645e-08 0.6299605 -3.003244e-08 0.669024 0.834310
4.371139e-08 -1 0.4999999 0 0 0.3149803 0.832357 0.834310
0.08682415 -1 0.4924038 0.05469576 9.563311e-09 0.310195 0.832357 0.997642
-4.371139e-08 1 0 -2.753645e-08 0.6299605 -3.003244e-08 0.834310 0.835691
0.08682415 -1 0.4924038 0.05469576 9.563311e-09 0.310195 0.997642 0.999023
0.1710101 -1 0.4698462 0.1077296 1.883605e-08 0.2959846 0.834310 0.999023
-4.371139e-08 1 0 -2.753645e-08 0.6299605 -3.003244e-08 0.835691 0.834310
0.1710101 -1 0.4698462 0.1077296 1.883605e-08 0.2959846 0.999023 0.834310
0.2500001 -1 0.4330127 0.1574902 2.753645e-08 0.2727809 0.999023 0.997642
-4.371139e-08 1 0 -2.753645e-08 0.6299605 -3.003244e-08 0.164309 0.832357
0.2500001 -1 0.4330127 0.1574902 2.753645e-08 0.2727809 0.000977 0.832357
0.3213939 -1 0.3830222 0.2024654 3.540018e-08 0.2412889 0.000977 0.669024
-4.371139e-08 1 0 -2.753645e-08 0.6299605 -3.003244e-08 0.165690 0.830976
0.3213939 -1 0.3830222 0.2024654 3.540018e-08 0.2412889 0.002358 0.667643
0.3830223 -0.9999999 0.3213938 0.2412889 4.21883e-08 0.2024654 0.165690 0.667643
-4.371139e-08 1 0 -2.753645e-08 0.6299605 -3.003244e-08 0.330976 0.832357
0.3830223 -0.9999999 0.3213938 0.2412889 4.21883e-08 0.2024654 0.167643 0.832357
0.4330128 -0.9999999 0.25 0.2727809 4.769454e-08 0.1574901 0.167643 0.669024
-4.371139e-08 1 0 -2.753645e-08 0.6299605 -3.003244e-08 0.169024 0.667643
0.4330128 -0.9999999 0.25 0.2727809 4.769454e-08 0.1574901 0.332357 0.667643
0.4698463 -0.9999999 0.17101 0.2959847 5.17516e-08 0.1077296 0.332357 0.830976
-4.371139e-08 1 0 -2.753645e-08 0.6299605 -3.003244e-08 0.497642 0.832357
0.4698463 -0.9999999 0.17101 0.2959847 5.17516e-08 0.1077296 0.334310 0.832357
0.4924039 -0.9999999 0.08682405 0.310195 5.423622e-08 0.05469576 0.334310 0.669024
-4.371139e-08 1 0 -2.753645e-08 0.6299605 -3.003244e-08 0.335691 0.667643
0.4924039 -0.9999999 0.08682405 0.310195 5.423622e-08 0.05469576 0.499023 0.667643
0.5 -0.9999999 6.123235e-17 0.3149803 5.50729e-08 0 0.499023 0.830976
-4.371139e-08 1 0 -2.753645e-08 0.6299605 -3.003244e-08 0.664309 0.832357
0.5 -0.9999999 6.123235e-17 0.3149803 5.50729e-08 0 0.500977 0.832357
0.4924039 -0.9999999 -0.08682405 0.310195 5.423622e-08 -0.05469576 0.500977 0.669024
-4.371139e-08 1 0 -2.753645e-08 0.6299605 -3.003244e-08 0.502358 0.667643
0.4924039 -0.9999999 -0.08682405 0.310195 5.423622e-08 -0.05469576 0.665690 0.667643
0.4698463 -0.9999999 -0.17101 0.2959847 5.17516e-08 -0.1077296 0.665690 0.830976
-4.371139e-08 1 0 -2.753645e-08 0.6299605 -3.003244e-08 0.830976 0.832357
0.4698463 -0.9999999 -0.17101 0.2959847 5.17516e-08 -0.1077296 0.667643 0.832357
0.4330128 -0.9999999 -0.25 0.2727809 4.769454e-08 -0.1574901 0.667643 0.669024
-4.371139e-08 1 0 -2.753645e-08 0.6299605 -3.003244e-08 0.832357 0.830976
0.4330128 -0.9999999 -0.25 0.2727809 4.769454e-08 -0.1574901 0.669024 0.667643
0.3830223 -0.9999999 -0.3213938 0.2412889 4.21883e-08 -0.2024654 0.832357 0.667643
-4.371139e-08 1 0 -2.753645e-08 0.6299605 -3.003244e-08 0.997642 0.832357
0.3830223 -0.9999999 -0.3213938 0.2412889 4.21883e-08 -0.2024654 0.834310 0.832357
0.3213939 -1 -0.3830222 0.2024654 3.540018e-08 -0.2412889 0.834310 0.669024
-4.371139e-08 1 0 -2.753645e-08 0.6299605 -3.003244e-08 0.835691 0.667643
0.3213939 -1 -0.3830222 0.2024654 3.540018e-08 -0.2412889 0.999023 0.667643
0.2500001 -1 -0.4330127 0.1574902 2.753645e-08 -0.2727809 0.999023 0.830976
-4.371139e-08 1 0 -2.753645e-08 0.6299605 -3.003244e-08 0.000977 0.502358
0.2500001 -1 -0.4330127 0.1574902 2.753645e-08 -0.2727809 0.164309 0.665690
0.1710101 -1 -0.4698462 0.1077296 1.883605e-08 -0.2959846 0.000977 0.665690
-4.371139e-08 1 0 -2.753645e-08 0.6299605 -3.003244e-08 0.002358 0.500977
0.1710101 -1 -0.4698462 0.1077296 1.883605e-08 -0.2959846 0.165690 0.500977
0.08682415 -1 -0.4924038 0.05469576 9.563311e-09 -0.310195 0.165690 0.664309
-4.371139e-08 1 0 -2.753645e-08 0.6299605 -3.003244e-08 0.330976 0.665690
0.08682415 -1 -0.4924038 0.05469576 9.563311e-09 -0.310195 0.167643 0.665690
4.371139e-08 -1 -0.4999999 0 0 -0.3149803 0.167643 0.502358
-4.371139e-08 1 0 -2.753645e-08 0.6299605 -3.003244e-08 0.169024 0.500977
4.371139e-08 -1 -0.4999999 0 0 -0.3149803 0.332357 0.500977
-0.08682405 -1 -0.4924038 -0.05469576 -9.563311e-09 -0.310195 0.332357 0.664309
-4.371139e-08 1 0 -2.753645e-08 0.6299605 -3.003244e-08 0.334310 0.502358
-0.08682405 -1 -0.4924038 -0.05469576 -9.563311e-09 -0.310195 0.497642 0.665690
-0.17101 -1 -0.4698462 -0.1077296 -1.883605e-08 -0.2959846 0.334310 0.665690
-4.371139e-08 1 0 -2.753645e-08 0.6299605 -3.003244e-08 0.335691 0.500977
-0.17101 -1 -0.4698462 -0.1077296 -1.883605e-08 -0.2959846 0.499023 0.500977
-0.25 -1 -0.4330127 -0.1574902 -2.753645e-08 -0.2727809 0.499023 0.664309
-4.371139e-08 1 0 -2.753645e-08 0.6299605 -3.003244e-08 0.500977 0.502358
-0.25 -1 -0.4330127 -0.1574902 -2.753645e-08 -0.2727809 0.664309 0.665690
-0.3213938 -1 -0.3830222 -0.2024654 -3.540018e-08 -0.2412889 0.500977 0.665690
-4.371139e-08 1 0 -2.753645e-08 0.6299605 -3.003244e-08 0.502358 0.500977
-0.3213938 -1 -0.3830222 -0.2024654 -3.540018e-08 -0.2412889 0.665690 0.500977
-0.3830222 -1 -0.3213938 -0.2412889 -4.21883e-08 -0.2024654 0.665690 0.664309
-4.371139e-08 1 0 -2.753645e-08 0.6299605 -3.003244e-08 0.830976 0.665690
-0.3830222 -1 -0.3213938 -0.2412889 -4.21883e-08 -0.2024654 0.667643 0.665690
-0.4330127 -1 -0.25 -0.2727809 -4.769454e-08 -0.1574901 0.667643 0.502358
-4.371139e-08 1 0 -2.753645e-08 0.6299605 -3.003244e-08 0.669024 0.500977
-0.4330127 -1 -0.25 -0.2727809 -4.769454e-08 -0.1574901 0.832357 0.500977
-0.4698462 -1 -0.17101 -0.2959847 -5.17516e-08 -0.1077296 0.832357 0.664309
-4.371139e-08 1 0 -2.753645e-08 0.6299605 -3.003244e-08 0.997642 0.665690
-0.4698462 -1 -0.17101 -0.2959847 -5.17516e-08 -0.1077296 0.834310 0.665690
-0.4924038 -1 -0.08682405 -0.310195 -5.423622e-08 -0.05469576 0.834310 0.502358
-4.371139e-08 1 0 -2.753645e-08 0.6299605 -3.003244e-08 0.835691 0.500977
-0.4924038 -1 -0.08682405 -0.310195 -5.423622e-08 -0.05469576 0.999023 0.500977
-0.4999999 -1 0 -0.3149803 -5.50729e-08 0 0.999023 0.664309
3 1 3 2 
3 38 4 39 
3 40 5 41 
3 42 6 43 
3 44 7 45 
3 46 8 47 
3 48 9 49 
3 50 10 51 
3 52 11 53 
3 54 12 55 
3 56 13 57 
3 58 14 59 
3 60 15 61 
3 62 16 63 
3 64 17 65 
3 66 18 67 
3 68 19 69 
3 70 20 71 
3 72 21 73 
3 74 22 75 
3 76 23 77 
3 78 24 79 
3 80 25 81 
3 82 26 83 
3 84 27 85 
3 86 28 87 
3 88 29 89 
3 90 30 91 
3 92 31 93 
3 94 32 95 
3 96 33 97 
3 98 34 99 
3 100 35 101 
3 102 36 103 
3 104 37 105 
3 106 107 108 
3 0 109 110 
3 111 112 113 
3 114 115 116 
3 117 118 119 
3 120 121 122 
3 123 124 125 
3 126 127 128 
3 129 130 131 
3 132 133 134 
3 135 136 137 
3 138 139 140 
3 141 142 143 
3 144 145 146 
3 147 148 149 
3 150 151 152 
3 153 154 155 
3 156 157 158 
3 159 160 161 
3 162 163 164 
3 165 166 167 
3 168 169 170 
3 171 172 173 
3 174 175 176 
3 177 178 179 
3 180 181 182 
3 183 184 185 
3 186 187 188 
3 189 190 191 
3 192 193 194 
3 195 196 197 
3 198 199 200 
3 201 202 203 
3 204 205 206 
3 207 208 209 
3 210 211 212 
3 213 214 215 
