ply
format ascii 1.0
comment VCGLIB generated
element vertex 36
property float x
property float y
property float z
property float nx
property float ny
property float nz
property float texture_u
property float texture_v
element face 12
property list uchar int vertex_indices
end_header
-0.5 -1 -3.5 -0.780951 -1.561902 -5.466657 0.000977 0.999023
0.5 -1 -3.5 0.4174358 -1.669743 -5.8441 0.330976 0.999023
-0.5 1 -3.5 -1.104431 1.104431 -7.73102 0.000977 0.669024
0.5 1 -3.5 0.8348715 1.669743 -2.92205 0.332357 0.667643
-0.5 -1 3.5 -0.8348715 -1.669743 2.92205 0.334310 0.669024
0.5 -1 3.5 1.104431 -1.104431 7.73102 0.999023 0.667643
-0.5 1 3.5 -0.4174358 1.669743 5.8441 0.665690 0.667643
0.5 1 3.5 0.780951 1.561902 5.466657 0.000977 0.665690
0.5 -1 -3.5 0.4174358 -1.669743 -5.8441 0.332357 0.997642
-0.5 1 -3.5 -1.104431 1.104431 -7.73102 0.002358 0.667643
-0.5 1 -3.5 -1.104431 1.104431 -7.73102 0.664309 0.999023
-0.5 -1 -3.5 -0.780951 -1.561902 -5.466657 0.334310 0.999023
-0.5 1 -3.5 -1.104431 1.104431 -7.73102 0.665690 0.997642
-0.5 -1 3.5 -0.8348715 -1.669743 2.92205 0.335691 0.667643
0.5 -1 -3.5 0.4174358 -1.669743 -5.8441 0.667643 0.669024
-0.5 -1 3.5 -0.8348715 -1.669743 2.92205 0.997642 0.999023
-0.5 -1 -3.5 -0.780951 -1.561902 -5.466657 0.667643 0.999023
-0.5 -1 3.5 -0.8348715 -1.669743 2.92205 0.999023 0.997642
0.5 -1 -3.5 0.4174358 -1.669743 -5.8441 0.669024 0.667643
-0.5 1 3.5 -0.4174358 1.669743 5.8441 0.000977 0.335691
0.5 -1 3.5 1.104431 -1.104431 7.73102 0.330976 0.665690
0.5 -1 3.5 1.104431 -1.104431 7.73102 0.332357 0.664309
-0.5 1 3.5 -0.4174358 1.669743 5.8441 0.002358 0.334310
-0.5 -1 3.5 -0.8348715 -1.669743 2.92205 0.332357 0.334310
0.5 1 -3.5 0.8348715 1.669743 -2.92205 0.334310 0.335691
-0.5 1 3.5 -0.4174358 1.669743 5.8441 0.664309 0.665690
0.5 1 3.5 0.780951 1.561902 5.466657 0.334310 0.665690
-0.5 1 3.5 -0.4174358 1.669743 5.8441 0.665690 0.664309
0.5 1 -3.5 0.8348715 1.669743 -2.92205 0.335691 0.334310
-0.5 1 -3.5 -1.104431 1.104431 -7.73102 0.665690 0.334310
0.5 -1 3.5 1.104431 -1.104431 7.73102 0.667643 0.335691
0.5 1 -3.5 0.8348715 1.669743 -2.92205 0.997642 0.665690
0.5 1 3.5 0.780951 1.561902 5.466657 0.667643 0.665690
0.5 1 -3.5 0.8348715 1.669743 -2.92205 0.999023 0.664309
0.5 -1 3.5 1.104431 -1.104431 7.73102 0.669024 0.334310
0.5 -1 -3.5 0.4174358 -1.669743 -5.8441 0.999023 0.334310
3 2 1 0 
3 8 9 3 
3 4 10 11 
3 12 13 6 
3 14 15 16 
3 17 18 5 
3 19 20 7 
3 21 22 23 
3 24 25 26 
3 27 28 29 
3 30 31 32 
3 33 34 35 
