ply
format ascii 1.0
comment VCGLIB generated
element vertex 36
property float x
property float y
property float z
property float nx
property float ny
property float nz
property float texture_u
property float texture_v
element face 12
property list uchar int vertex_indices
end_header
-13.5 -0.9999999 0.5000006 -0.9965882 -0.07382133 0.03691071 0.000977 0.999023
-13.5 -0.9999999 -0.4999994 -0.9970977 -0.07385909 -0.01846473 0.330976 0.999023
-13.5 0.9999999 0.5000006 -0.9986311 0.03698633 0.03698638 0.000977 0.669024
-13.5 0.9999999 -0.4999994 -0.9865586 0.1461568 -0.07307834 0.332357 0.667643
13.5 -0.9999999 0.4999994 0.9865586 -0.1461568 0.07307834 0.334310 0.669024
13.5 -0.9999999 -0.5000006 0.9986311 -0.03698633 -0.03698638 0.999023 0.667643
13.5 0.9999999 0.4999994 0.9970977 0.07385909 0.01846473 0.665690 0.667643
13.5 0.9999999 -0.5000006 0.9965882 0.07382133 -0.03691071 0.000977 0.665690
-13.5 -0.9999999 -0.4999994 -0.9970977 -0.07385909 -0.01846473 0.332357 0.997642
-13.5 0.9999999 0.5000006 -0.9986311 0.03698633 0.03698638 0.002358 0.667643
-13.5 0.9999999 0.5000006 -0.9986311 0.03698633 0.03698638 0.664309 0.999023
-13.5 -0.9999999 0.5000006 -0.9965882 -0.07382133 0.03691071 0.334310 0.999023
-13.5 0.9999999 0.5000006 -0.9986311 0.03698633 0.03698638 0.665690 0.997642
13.5 -0.9999999 0.4999994 0.9865586 -0.1461568 0.07307834 0.335691 0.667643
-13.5 -0.9999999 -0.4999994 -0.9970977 -0.07385909 -0.01846473 0.667643 0.669024
13.5 -0.9999999 0.4999994 0.9865586 -0.1461568 0.07307834 0.997642 0.999023
-13.5 -0.9999999 0.5000006 -0.9965882 -0.07382133 0.03691071 0.667643 0.999023
13.5 -0.9999999 0.4999994 0.9865586 -0.1461568 0.07307834 0.999023 0.997642
-13.5 -0.9999999 -0.4999994 -0.9970977 -0.07385909 -0.01846473 0.669024 0.667643
13.5 0.9999999 0.4999994 0.9970977 0.07385909 0.01846473 0.000977 0.335691
13.5 -0.9999999 -0.5000006 0.9986311 -0.03698633 -0.03698638 0.330976 0.665690
13.5 -0.9999999 -0.5000006 0.9986311 -0.03698633 -0.03698638 0.332357 0.664309
13.5 0.9999999 0.4999994 0.9970977 0.07385909 0.01846473 0.002358 0.334310
13.5 -0.9999999 0.4999994 0.9865586 -0.1461568 0.07307834 0.332357 0.334310
-13.5 0.9999999 -0.4999994 -0.9865586 0.1461568 -0.07307834 0.334310 0.335691
13.5 0.9999999 0.4999994 0.9970977 0.07385909 0.01846473 0.664309 0.665690
13.5 0.9999999 -0.5000006 0.9965882 0.07382133 -0.03691071 0.334310 0.665690
13.5 0.9999999 0.4999994 0.9970977 0.07385909 0.01846473 0.665690 0.664309
-13.5 0.9999999 -0.4999994 -0.9865586 0.1461568 -0.07307834 0.335691 0.334310
-13.5 0.9999999 0.5000006 -0.9986311 0.03698633 0.03698638 0.665690 0.334310
13.5 -0.9999999 -0.5000006 0.9986311 -0.03698633 -0.03698638 0.667643 0.335691
-13.5 0.9999999 -0.4999994 -0.9865586 0.1461568 -0.07307834 0.997642 0.665690
13.5 0.9999999 -0.5000006 0.9965882 0.07382133 -0.03691071 0.667643 0.665690
-13.5 0.9999999 -0.4999994 -0.9865586 0.1461568 -0.07307834 0.999023 0.664309
13.5 -0.9999999 -0.5000006 0.9986311 -0.03698633 -0.03698638 0.669024 0.334310
-13.5 -0.9999999 -0.4999994 -0.9970977 -0.07385909 -0.01846473 0.999023 0.334310
3 2 1 0 
3 8 9 3 
3 4 10 11 
3 12 13 6 
3 14 15 16 
3 17 18 5 
3 19 20 7 
3 21 22 23 
3 24 25 26 
3 27 28 29 
3 30 31 32 
3 33 34 35 
