ply
format ascii 1.0
comment VCGLIB generated
element vertex 36
property float x
property float y
property float z
property float nx
property float ny
property float nz
property float texture_u
property float texture_v
element face 12
property list uchar int vertex_indices
end_header
-13.5 -0.5 -18 -86.66299 -3.20974 -115.5507 0.000977 0.999023
13.5 -0.5 -18 46.32331 -3.431356 -123.5288 0.330976 0.999023
-13.5 0.5 -18 -122.56 2.269629 -163.4133 0.000977 0.669024
13.5 0.5 -18 92.64661 3.431356 -61.76441 0.332357 0.667643
-13.5 -0.5 18 -92.64661 -3.431356 61.76441 0.334310 0.669024
13.5 -0.5 18 122.56 -2.269629 163.4133 0.999023 0.667643
-13.5 0.5 18 -46.32331 3.431356 123.5288 0.665690 0.667643
13.5 0.5 18 86.66299 3.20974 115.5507 0.000977 0.665690
13.5 -0.5 -18 46.32331 -3.431356 -123.5288 0.332357 0.997642
-13.5 0.5 -18 -122.56 2.269629 -163.4133 0.002358 0.667643
-13.5 0.5 -18 -122.56 2.269629 -163.4133 0.664309 0.999023
-13.5 -0.5 -18 -86.66299 -3.20974 -115.5507 0.334310 0.999023
-13.5 0.5 -18 -122.56 2.269629 -163.4133 0.665690 0.997642
-13.5 -0.5 18 -92.64661 -3.431356 61.76441 0.335691 0.667643
13.5 -0.5 -18 46.32331 -3.431356 -123.5288 0.667643 0.669024
-13.5 -0.5 18 -92.64661 -3.431356 61.76441 0.997642 0.999023
-13.5 -0.5 -18 -86.66299 -3.20974 -115.5507 0.667643 0.999023
-13.5 -0.5 18 -92.64661 -3.431356 61.76441 0.999023 0.997642
13.5 -0.5 -18 46.32331 -3.431356 -123.5288 0.669024 0.667643
-13.5 0.5 18 -46.32331 3.431356 123.5288 0.000977 0.335691
13.5 -0.5 18 122.56 -2.269629 163.4133 0.330976 0.665690
13.5 -0.5 18 122.56 -2.269629 163.4133 0.332357 0.664309
-13.5 0.5 18 -46.32331 3.431356 123.5288 0.002358 0.334310
-13.5 -0.5 18 -92.64661 -3.431356 61.76441 0.332357 0.334310
13.5 0.5 -18 92.64661 3.431356 -61.76441 0.334310 0.335691
-13.5 0.5 18 -46.32331 3.431356 123.5288 0.664309 0.665690
13.5 0.5 18 86.66299 3.20974 115.5507 0.334310 0.665690
-13.5 0.5 18 -46.32331 3.431356 123.5288 0.665690 0.664309
13.5 0.5 -18 92.64661 3.431356 -61.76441 0.335691 0.334310
-13.5 0.5 -18 -122.56 2.269629 -163.4133 0.665690 0.334310
13.5 -0.5 18 122.56 -2.269629 163.4133 0.667643 0.335691
13.5 0.5 -18 92.64661 3.431356 -61.76441 0.997642 0.665690
13.5 0.5 18 86.66299 3.20974 115.5507 0.667643 0.665690
13.5 0.5 -18 92.64661 3.431356 -61.76441 0.999023 0.664309
13.5 -0.5 18 122.56 -2.269629 163.4133 0.669024 0.334310
13.5 -0.5 -18 46.32331 -3.431356 -123.5288 0.999023 0.334310
3 2 1 0 
3 8 9 3 
3 4 10 11 
3 12 13 6 
3 14 15 16 
3 17 18 5 
3 19 20 7 
3 21 22 23 
3 24 25 26 
3 27 28 29 
3 30 31 32 
3 33 34 35 
