ply
format ascii 1.0
comment VCGLIB generated
element vertex 36
property float x
property float y
property float z
property float nx
property float ny
property float nz
property float texture_u
property float texture_v
element face 12
property list uchar int vertex_indices
end_header
-0.5 -1 -17.5 -1.335407 -2.670815 -46.73927 0.000977 0.999023
0.5 -1 -17.5 0.7138051 -2.855221 -49.96636 0.330976 0.999023
-0.5 1 -17.5 -1.888551 1.888551 -66.0993 0.000977 0.669024
0.5 1 -17.5 1.42761 2.855221 -24.98318 0.332357 0.667643
-0.5 -1 17.5 -1.42761 -2.855221 24.98318 0.334310 0.669024
0.5 -1 17.5 1.888551 -1.888551 66.0993 0.999023 0.667643
-0.5 1 17.5 -0.7138051 2.855221 49.96636 0.665690 0.667643
0.5 1 17.5 1.335407 2.670815 46.73927 0.000977 0.665690
0.5 -1 -17.5 0.7138051 -2.855221 -49.96636 0.332357 0.997642
-0.5 1 -17.5 -1.888551 1.888551 -66.0993 0.002358 0.667643
-0.5 1 -17.5 -1.888551 1.888551 -66.0993 0.664309 0.999023
-0.5 -1 -17.5 -1.335407 -2.670815 -46.73927 0.334310 0.999023
-0.5 1 -17.5 -1.888551 1.888551 -66.0993 0.665690 0.997642
-0.5 -1 17.5 -1.42761 -2.855221 24.98318 0.335691 0.667643
0.5 -1 -17.5 0.7138051 -2.855221 -49.96636 0.667643 0.669024
-0.5 -1 17.5 -1.42761 -2.855221 24.98318 0.997642 0.999023
-0.5 -1 -17.5 -1.335407 -2.670815 -46.73927 0.667643 0.999023
-0.5 -1 17.5 -1.42761 -2.855221 24.98318 0.999023 0.997642
0.5 -1 -17.5 0.7138051 -2.855221 -49.96636 0.669024 0.667643
-0.5 1 17.5 -0.7138051 2.855221 49.96636 0.000977 0.335691
0.5 -1 17.5 1.888551 -1.888551 66.0993 0.330976 0.665690
0.5 -1 17.5 1.888551 -1.888551 66.0993 0.332357 0.664309
-0.5 1 17.5 -0.7138051 2.855221 49.96636 0.002358 0.334310
-0.5 -1 17.5 -1.42761 -2.855221 24.98318 0.332357 0.334310
0.5 1 -17.5 1.42761 2.855221 -24.98318 0.334310 0.335691
-0.5 1 17.5 -0.7138051 2.855221 49.96636 0.664309 0.665690
0.5 1 17.5 1.335407 2.670815 46.73927 0.334310 0.665690
-0.5 1 17.5 -0.7138051 2.855221 49.96636 0.665690 0.664309
0.5 1 -17.5 1.42761 2.855221 -24.98318 0.335691 0.334310
-0.5 1 -17.5 -1.888551 1.888551 -66.0993 0.665690 0.334310
0.5 -1 17.5 1.888551 -1.888551 66.0993 0.667643 0.335691
0.5 1 -17.5 1.42761 2.855221 -24.98318 0.997642 0.665690
0.5 1 17.5 1.335407 2.670815 46.73927 0.667643 0.665690
0.5 1 -17.5 1.42761 2.855221 -24.98318 0.999023 0.664309
0.5 -1 17.5 1.888551 -1.888551 66.0993 0.669024 0.334310
0.5 -1 -17.5 0.7138051 -2.855221 -49.96636 0.999023 0.334310
3 2 1 0 
3 8 9 3 
3 4 10 11 
3 12 13 6 
3 14 15 16 
3 17 18 5 
3 19 20 7 
3 21 22 23 
3 24 25 26 
3 27 28 29 
3 30 31 32 
3 33 34 35 
