ply
format ascii 1.0
comment VCGLIB generated
element vertex 36
property float x
property float y
property float z
property float nx
property float ny
property float nz
property float texture_u
property float texture_v
element face 12
property list uchar int vertex_indices
end_header
-1.5 -0.5 -2.5 -0.5070925 -0.1690308 -0.8451543 0.500977 0.250977
1.5 -0.5 -2.5 0.2822163 -0.1881442 -0.9407209 0.500977 0.497642
-1.5 0.5 -2.5 -0.5126146 0.08543577 -0.8543577 0.747642 0.250977
1.5 0.5 -2.5 0.7442084 0.2480695 -0.6201737 0.500977 0.249023
-1.5 -0.5 2.5 -0.7442084 -0.2480695 0.6201737 0.000977 0.497642
1.5 -0.5 2.5 0.5126146 -0.08543577 0.8543577 0.499023 0.500977
-1.5 0.5 2.5 -0.2822163 0.1881442 0.9407209 0.250000 0.251381
1.5 0.5 2.5 0.5070925 0.1690308 0.8451543 0.750977 0.499023
1.5 -0.5 -2.5 0.2822163 -0.1881442 -0.9407209 0.500977 0.002358
-1.5 0.5 -2.5 -0.5126146 0.08543577 -0.8543577 0.747642 0.249023
-1.5 0.5 -2.5 -0.5126146 0.08543577 -0.8543577 0.000977 0.002358
-1.5 -0.5 -2.5 -0.5070925 -0.1690308 -0.8451543 0.248619 0.250000
-1.5 0.5 -2.5 -0.5126146 0.08543577 -0.8543577 0.497642 0.499023
-1.5 -0.5 2.5 -0.7442084 -0.2480695 0.6201737 0.002358 0.499023
1.5 -0.5 -2.5 0.2822163 -0.1881442 -0.9407209 0.000977 0.502358
-1.5 -0.5 2.5 -0.7442084 -0.2480695 0.6201737 0.497642 0.999023
-1.5 -0.5 -2.5 -0.5070925 -0.1690308 -0.8451543 0.000977 0.999023
-1.5 -0.5 2.5 -0.7442084 -0.2480695 0.6201737 0.499023 0.997642
1.5 -0.5 -2.5 0.2822163 -0.1881442 -0.9407209 0.002358 0.500977
-1.5 0.5 2.5 -0.2822163 0.1881442 0.9407209 0.750977 0.252358
1.5 -0.5 2.5 0.5126146 -0.08543577 0.8543577 0.997642 0.499023
1.5 -0.5 2.5 0.5126146 -0.08543577 0.8543577 0.502358 0.499023
-1.5 0.5 2.5 -0.2822163 0.1881442 0.9407209 0.749023 0.252358
-1.5 -0.5 2.5 -0.7442084 -0.2480695 0.6201737 0.749023 0.499023
1.5 0.5 -2.5 0.7442084 0.2480695 -0.6201737 0.500977 0.502358
-1.5 0.5 2.5 -0.2822163 0.1881442 0.9407209 0.997642 0.999023
1.5 0.5 2.5 0.5070925 0.1690308 0.8451543 0.500977 0.999023
-1.5 0.5 2.5 -0.2822163 0.1881442 0.9407209 0.999023 0.997642
1.5 0.5 -2.5 0.7442084 0.2480695 -0.6201737 0.502358 0.500977
-1.5 0.5 -2.5 -0.5126146 0.08543577 -0.8543577 0.999023 0.500977
1.5 -0.5 2.5 0.5126146 -0.08543577 0.8543577 0.499023 0.002358
1.5 0.5 -2.5 0.7442084 0.2480695 -0.6201737 0.499023 0.497642
1.5 0.5 2.5 0.5070925 0.1690308 0.8451543 0.251381 0.250000
1.5 0.5 -2.5 0.7442084 0.2480695 -0.6201737 0.002358 0.000977
1.5 -0.5 2.5 0.5126146 -0.08543577 0.8543577 0.497642 0.000977
1.5 -0.5 -2.5 0.2822163 -0.1881442 -0.9407209 0.250000 0.248619
3 2 1 0 
3 8 9 3 
3 4 10 11 
3 12 13 6 
3 14 15 16 
3 17 18 5 
3 19 20 7 
3 21 22 23 
3 24 25 26 
3 27 28 29 
3 30 31 32 
3 33 34 35 
