ply
format ascii 1.0
comment VCGLIB generated
element vertex 432
property float x
property float y
property float z
property float nx
property float ny
property float nz
property float texture_u
property float texture_v
element face 144
property list uchar int vertex_indices
end_header
0 -1 0 0 -0.8254818 0 0.500977 0.497642
0 1 0 0 0.8254818 0 0.625977 0.252358
0.75 -1 0 0.587116 -0.2609404 0.01712202 0.500977 0.377358
0.7386058 -1 0.1302361 0.5752231 -0.2609404 0.1188135 0.561119 0.437500
0.7047695 -1 0.2565151 0.5458525 -0.2609404 0.2168949 0.622642 0.499023
0.649519 -1 0.375 0.4998964 -0.2609404 0.3083861 0.624023 0.377358
0.5745333 -1 0.4820907 0.4387511 -0.2609404 0.3905071 0.502358 0.375977
0.4820907 -1 0.5745333 0.3642747 -0.2609404 0.4607628 0.625977 0.497642
0.375 -1 0.649519 0.2787299 -0.2609404 0.5170183 0.747642 0.499023
0.2565151 -1 0.7047695 0.184716 -0.2609404 0.5575646 0.749023 0.377358
0.1302361 -1 0.7386058 0.0850898 -0.2609404 0.5811695 0.687500 0.436119
4.592426e-17 -1 0.75 -0.01712202 -0.2609404 0.587116 0.750977 0.497642
-0.1302361 -1 0.7386058 -0.1188135 -0.2609404 0.5752231 0.812500 0.438881
-0.2565151 -1 0.7047695 -0.2168949 -0.2609404 0.5458525 0.874023 0.377358
-0.375 -1 0.649519 -0.3083861 -0.2609404 0.4998964 0.752358 0.375977
-0.4820907 -1 0.5745333 -0.3905071 -0.2609404 0.4387511 0.875977 0.497642
-0.5745333 -1 0.4820907 -0.4607628 -0.2609404 0.3642747 0.997642 0.499023
-0.649519 -1 0.375 -0.5170183 -0.2609404 0.2787299 0.999023 0.377358
-0.7047695 -1 0.2565151 -0.5575646 -0.2609404 0.184716 0.877358 0.375977
-0.7386058 -1 0.1302361 -0.5811695 -0.2609404 0.0850898 0.061119 0.312500
-0.75 -1 9.184852e-17 -0.587116 -0.2609404 -0.01712202 0.122642 0.374023
-0.7386058 -1 -0.1302361 -0.5752231 -0.2609404 -0.1188135 0.063881 0.312500
-0.7047695 -1 -0.2565151 -0.5458525 -0.2609404 -0.2168949 0.002358 0.250977
-0.649519 -1 -0.375 -0.4998964 -0.2609404 -0.3083861 0.125977 0.372642
-0.5745333 -1 -0.4820907 -0.4387511 -0.2609404 -0.3905071 0.247642 0.374023
-0.4820907 -1 -0.5745333 -0.3642747 -0.2609404 -0.4607628 0.249023 0.252358
-0.375 -1 -0.649519 -0.2787299 -0.2609404 -0.5170183 0.127358 0.250977
-0.2565151 -1 -0.7047695 -0.184716 -0.2609404 -0.5575646 0.250977 0.372642
-0.1302361 -1 -0.7386058 -0.0850898 -0.2609404 -0.5811695 0.312500 0.313881
-1.377728e-16 -1 -0.75 0.01712202 -0.2609404 -0.587116 0.374023 0.252358
0.1302361 -1 -0.7386058 0.1188135 -0.2609404 -0.5752231 0.312500 0.311119
0.2565151 -1 -0.7047695 0.2168949 -0.2609404 -0.5458525 0.375977 0.372642
0.375 -1 -0.649519 0.3083861 -0.2609404 -0.4998964 0.497642 0.374023
0.4820907 -1 -0.5745333 0.3905071 -0.2609404 -0.4387511 0.499023 0.252358
0.5745333 -1 -0.4820907 0.4607628 -0.2609404 -0.3642747 0.377358 0.250977
0.649519 -1 -0.375 0.5170183 -0.2609404 -0.2787299 0.500977 0.372642
0.7047695 -1 -0.2565151 0.5575646 -0.2609404 -0.184716 0.622642 0.374023
0.7386058 -1 -0.1302361 0.5811695 -0.2609404 -0.0850898 0.563881 0.312500
0.75 1 0 0.587116 0.2609404 -0.01712202 0.625977 0.372642
0.7386058 1 0.1302361 0.5811695 0.2609404 0.0850898 0.686119 0.312500
0.7047695 1 0.2565151 0.5575646 0.2609404 0.184716 0.627358 0.374023
0.649519 1 0.375 0.5170183 0.2609404 0.2787299 0.688881 0.312500
0.5745333 1 0.4820907 0.4607628 0.2609404 0.3642747 0.687500 0.311119
0.4820907 1 0.5745333 0.3905071 0.2609404 0.4387511 0.811119 0.312500
0.375 1 0.649519 0.3083861 0.2609404 0.4998964 0.812500 0.313881
0.2565151 1 0.7047695 0.2168949 0.2609404 0.5458525 0.813881 0.312500
0.1302361 1 0.7386058 0.1188135 0.2609404 0.5752231 0.812500 0.311119
4.592426e-17 1 0.75 0.01712202 0.2609404 0.587116 0.875977 0.252358
-0.1302361 1 0.7386058 -0.0850898 0.2609404 0.5811695 0.937500 0.313881
-0.2565151 1 0.7047695 -0.184716 0.2609404 0.5575646 0.999023 0.372642
-0.375 1 0.649519 -0.2787299 0.2609404 0.5170183 0.937500 0.311119
-0.4820907 1 0.5745333 -0.3642747 0.2609404 0.4607628 0.061119 0.187500
-0.5745333 1 0.4820907 -0.4387511 0.2609404 0.3905071 0.062500 0.188881
-0.649519 1 0.375 -0.4998964 0.2609404 0.3083861 0.063881 0.187500
-0.7047695 1 0.2565151 -0.5458525 0.2609404 0.2168949 0.062500 0.186119
-0.7386058 1 0.1302361 -0.5752231 0.2609404 0.1188135 0.186119 0.187500
-0.75 1 9.184852e-17 -0.587116 0.2609404 0.01712202 0.127358 0.249023
-0.7386058 1 -0.1302361 -0.5811695 0.2609404 -0.0850898 0.188881 0.187500
-0.7047695 1 -0.2565151 -0.5575646 0.2609404 -0.184716 0.247642 0.125977
-0.649519 1 -0.375 -0.5170183 0.2609404 -0.2787299 0.311119 0.187500
-0.5745333 1 -0.4820907 -0.4607628 0.2609404 -0.3642747 0.312500 0.188881
-0.4820907 1 -0.5745333 -0.3905071 0.2609404 -0.4387511 0.313881 0.187500
-0.375 1 -0.649519 -0.3083861 0.2609404 -0.4998964 0.312500 0.186119
-0.2565151 1 -0.7047695 -0.2168949 0.2609404 -0.5458525 0.436119 0.187500
-0.1302361 1 -0.7386058 -0.1188135 0.2609404 -0.5752231 0.437500 0.188881
-1.377728e-16 1 -0.75 -0.01712202 0.2609404 -0.587116 0.499023 0.247642
0.1302361 1 -0.7386058 0.0850898 0.2609404 -0.5811695 0.437500 0.186119
0.2565151 1 -0.7047695 0.184716 0.2609404 -0.5575646 0.500977 0.127358
0.375 1 -0.649519 0.2787299 0.2609404 -0.5170183 0.562500 0.188881
0.4820907 1 -0.5745333 0.3642747 0.2609404 -0.4607628 0.563881 0.187500
0.5745333 1 -0.4820907 0.4387511 0.2609404 -0.3905071 0.562500 0.186119
0.649519 1 -0.375 0.4998964 0.2609404 -0.3083861 0.686119 0.187500
0.7047695 1 -0.2565151 0.5458525 0.2609404 -0.2168949 0.687500 0.188881
0.7386058 1 -0.1302361 0.5752231 0.2609404 -0.1188135 0.688881 0.187500
0 -1 0 0 -0.8254818 0 0.502358 0.499023
0.7386058 -1 0.1302361 0.5752231 -0.2609404 0.1188135 0.562500 0.438881
0 -1 0 0 -0.8254818 0 0.624023 0.497642
0.7047695 -1 0.2565151 0.5458525 -0.2609404 0.2168949 0.563881 0.437500
0 -1 0 0 -0.8254818 0 0.622642 0.375977
0.649519 -1 0.375 0.4998964 -0.2609404 0.3083861 0.562500 0.436119
0 -1 0 0 -0.8254818 0 0.625977 0.377358
0.5745333 -1 0.4820907 0.4387511 -0.2609404 0.3905071 0.686119 0.437500
0 -1 0 0 -0.8254818 0 0.627358 0.499023
0.4820907 -1 0.5745333 0.3642747 -0.2609404 0.4607628 0.687500 0.438881
0 -1 0 0 -0.8254818 0 0.749023 0.497642
0.375 -1 0.649519 0.2787299 -0.2609404 0.5170183 0.688881 0.437500
0 -1 0 0 -0.8254818 0 0.627358 0.375977
0.2565151 -1 0.7047695 0.184716 -0.2609404 0.5575646 0.747642 0.375977
0 -1 0 0 -0.8254818 0 0.750977 0.377358
0.1302361 -1 0.7386058 0.0850898 -0.2609404 0.5811695 0.811119 0.437500
0 -1 0 0 -0.8254818 0 0.872642 0.499023
4.592426e-17 -1 0.75 -0.01712202 -0.2609404 0.587116 0.752358 0.499023
0 -1 0 0 -0.8254818 0 0.874023 0.497642
-0.1302361 -1 0.7386058 -0.1188135 -0.2609404 0.5752231 0.813881 0.437500
0 -1 0 0 -0.8254818 0 0.872642 0.375977
-0.2565151 -1 0.7047695 -0.2168949 -0.2609404 0.5458525 0.812500 0.436119
0 -1 0 0 -0.8254818 0 0.875977 0.377358
-0.375 -1 0.649519 -0.3083861 -0.2609404 0.4998964 0.936119 0.437500
0 -1 0 0 -0.8254818 0 0.877358 0.499023
-0.4820907 -1 0.5745333 -0.3905071 -0.2609404 0.4387511 0.937500 0.438881
0 -1 0 0 -0.8254818 0 0.999023 0.497642
-0.5745333 -1 0.4820907 -0.4607628 -0.2609404 0.3642747 0.938881 0.437500
0 -1 0 0 -0.8254818 0 0.997642 0.375977
-0.649519 -1 0.375 -0.5170183 -0.2609404 0.2787299 0.937500 0.436119
0 -1 0 0 -0.8254818 0 0.000977 0.372642
-0.7047695 -1 0.2565151 -0.5575646 -0.2609404 0.184716 0.000977 0.252358
0 -1 0 0 -0.8254818 0 0.002358 0.374023
-0.7386058 -1 0.1302361 -0.5811695 -0.2609404 0.0850898 0.062500 0.313881
0 -1 0 0 -0.8254818 0 0.124023 0.252358
-0.75 -1 9.184852e-17 -0.587116 -0.2609404 -0.01712202 0.124023 0.372642
0 -1 0 0 -0.8254818 0 0.122642 0.250977
-0.7386058 -1 -0.1302361 -0.5752231 -0.2609404 -0.1188135 0.062500 0.311119
0 -1 0 0 -0.8254818 0 0.125977 0.252358
-0.7047695 -1 -0.2565151 -0.5458525 -0.2609404 -0.2168949 0.186119 0.312500
0 -1 0 0 -0.8254818 0 0.127358 0.374023
-0.649519 -1 -0.375 -0.4998964 -0.2609404 -0.3083861 0.187500 0.313881
0 -1 0 0 -0.8254818 0 0.249023 0.372642
-0.5745333 -1 -0.4820907 -0.4387511 -0.2609404 -0.3905071 0.188881 0.312500
0 -1 0 0 -0.8254818 0 0.247642 0.250977
-0.4820907 -1 -0.5745333 -0.3642747 -0.2609404 -0.4607628 0.187500 0.311119
0 -1 0 0 -0.8254818 0 0.250977 0.252358
-0.375 -1 -0.649519 -0.2787299 -0.2609404 -0.5170183 0.311119 0.312500
0 -1 0 0 -0.8254818 0 0.372642 0.374023
-0.2565151 -1 -0.7047695 -0.184716 -0.2609404 -0.5575646 0.252358 0.374023
0 -1 0 0 -0.8254818 0 0.374023 0.372642
-0.1302361 -1 -0.7386058 -0.0850898 -0.2609404 -0.5811695 0.313881 0.312500
0 -1 0 0 -0.8254818 0 0.252358 0.250977
-1.377728e-16 -1 -0.75 0.01712202 -0.2609404 -0.587116 0.372642 0.250977
0 -1 0 0 -0.8254818 0 0.375977 0.252358
0.1302361 -1 -0.7386058 0.1188135 -0.2609404 -0.5752231 0.436119 0.312500
0 -1 0 0 -0.8254818 0 0.377358 0.374023
0.2565151 -1 -0.7047695 0.2168949 -0.2609404 -0.5458525 0.437500 0.313881
0 -1 0 0 -0.8254818 0 0.499023 0.372642
0.375 -1 -0.649519 0.3083861 -0.2609404 -0.4998964 0.438881 0.312500
0 -1 0 0 -0.8254818 0 0.497642 0.250977
0.4820907 -1 -0.5745333 0.3905071 -0.2609404 -0.4387511 0.437500 0.311119
0 -1 0 0 -0.8254818 0 0.500977 0.252358
0.5745333 -1 -0.4820907 0.4607628 -0.2609404 -0.3642747 0.561119 0.312500
0 -1 0 0 -0.8254818 0 0.502358 0.374023
0.649519 -1 -0.375 0.5170183 -0.2609404 -0.2787299 0.562500 0.313881
0 -1 0 0 -0.8254818 0 0.624023 0.252358
0.7047695 -1 -0.2565151 0.5575646 -0.2609404 -0.184716 0.624023 0.372642
0 -1 0 0 -0.8254818 0 0.622642 0.250977
0.7386058 -1 -0.1302361 0.5811695 -0.2609404 -0.0850898 0.562500 0.311119
0.75 -1 0 0.587116 -0.2609404 0.01712202 0.502358 0.250977
0 1 0 0 0.8254818 0 0.747642 0.374023
0.7386058 1 0.1302361 0.5811695 0.2609404 0.0850898 0.687500 0.313881
0 1 0 0 0.8254818 0 0.749023 0.372642
0.7047695 1 0.2565151 0.5575646 0.2609404 0.184716 0.749023 0.252358
0 1 0 0 0.8254818 0 0.747642 0.250977
0.649519 1 0.375 0.5170183 0.2609404 0.2787299 0.627358 0.250977
0 1 0 0 0.8254818 0 0.750977 0.252358
0.5745333 1 0.4820907 0.4607628 0.2609404 0.3642747 0.750977 0.372642
0 1 0 0 0.8254818 0 0.752358 0.374023
0.4820907 1 0.5745333 0.3905071 0.2609404 0.4387511 0.872642 0.374023
0 1 0 0 0.8254818 0 0.874023 0.372642
0.375 1 0.649519 0.3083861 0.2609404 0.4998964 0.874023 0.252358
0 1 0 0 0.8254818 0 0.872642 0.250977
0.2565151 1 0.7047695 0.2168949 0.2609404 0.5458525 0.752358 0.250977
0 1 0 0 0.8254818 0 0.875977 0.372642
0.1302361 1 0.7386058 0.1188135 0.2609404 0.5752231 0.936119 0.312500
0 1 0 0 0.8254818 0 0.877358 0.374023
4.592426e-17 1 0.75 0.01712202 0.2609404 0.587116 0.997642 0.374023
0 1 0 0 0.8254818 0 0.999023 0.252358
-0.1302361 1 0.7386058 -0.0850898 0.2609404 0.5811695 0.938881 0.312500
0 1 0 0 0.8254818 0 0.997642 0.250977
-0.2565151 1 0.7047695 -0.184716 0.2609404 0.5575646 0.877358 0.250977
0 1 0 0 0.8254818 0 0.000977 0.127358
-0.375 1 0.649519 -0.2787299 0.2609404 0.5170183 0.000977 0.247642
0 1 0 0 0.8254818 0 0.002358 0.249023
-0.4820907 1 0.5745333 -0.3642747 0.2609404 0.4607628 0.122642 0.249023
0 1 0 0 0.8254818 0 0.124023 0.247642
-0.5745333 1 0.4820907 -0.4387511 0.2609404 0.3905071 0.124023 0.127358
0 1 0 0 0.8254818 0 0.122642 0.125977
-0.649519 1 0.375 -0.4998964 0.2609404 0.3083861 0.002358 0.125977
0 1 0 0 0.8254818 0 0.125977 0.127358
-0.7047695 1 0.2565151 -0.5458525 0.2609404 0.2168949 0.125977 0.247642
0 1 0 0 0.8254818 0 0.247642 0.249023
-0.7386058 1 0.1302361 -0.5752231 0.2609404 0.1188135 0.187500 0.188881
0 1 0 0 0.8254818 0 0.249023 0.247642
-0.75 1 9.184852e-17 -0.587116 0.2609404 0.01712202 0.249023 0.127358
0 1 0 0 0.8254818 0 0.127358 0.125977
-0.7386058 1 -0.1302361 -0.5811695 0.2609404 -0.0850898 0.187500 0.186119
0 1 0 0 0.8254818 0 0.250977 0.127358
-0.7047695 1 -0.2565151 -0.5575646 0.2609404 -0.184716 0.250977 0.247642
0 1 0 0 0.8254818 0 0.252358 0.249023
-0.649519 1 -0.375 -0.5170183 0.2609404 -0.2787299 0.372642 0.249023
0 1 0 0 0.8254818 0 0.374023 0.247642
-0.5745333 1 -0.4820907 -0.4607628 0.2609404 -0.3642747 0.374023 0.127358
0 1 0 0 0.8254818 0 0.372642 0.125977
-0.4820907 1 -0.5745333 -0.3905071 0.2609404 -0.4387511 0.252358 0.125977
0 1 0 0 0.8254818 0 0.375977 0.127358
-0.375 1 -0.649519 -0.3083861 0.2609404 -0.4998964 0.375977 0.247642
0 1 0 0 0.8254818 0 0.377358 0.249023
-0.2565151 1 -0.7047695 -0.2168949 0.2609404 -0.5458525 0.497642 0.249023
0 1 0 0 0.8254818 0 0.499023 0.127358
-0.1302361 1 -0.7386058 -0.1188135 0.2609404 -0.5752231 0.438881 0.187500
0 1 0 0 0.8254818 0 0.497642 0.125977
-1.377728e-16 1 -0.75 -0.01712202 0.2609404 -0.587116 0.377358 0.125977
0 1 0 0 0.8254818 0 0.500977 0.247642
0.1302361 1 -0.7386058 0.0850898 0.2609404 -0.5811695 0.561119 0.187500
0 1 0 0 0.8254818 0 0.502358 0.249023
0.2565151 1 -0.7047695 0.184716 0.2609404 -0.5575646 0.622642 0.249023
0 1 0 0 0.8254818 0 0.624023 0.247642
0.375 1 -0.649519 0.2787299 0.2609404 -0.5170183 0.624023 0.127358
0 1 0 0 0.8254818 0 0.622642 0.125977
0.4820907 1 -0.5745333 0.3642747 0.2609404 -0.4607628 0.502358 0.125977
0 1 0 0 0.8254818 0 0.625977 0.127358
0.5745333 1 -0.4820907 0.4387511 0.2609404 -0.3905071 0.625977 0.247642
0 1 0 0 0.8254818 0 0.627358 0.249023
0.649519 1 -0.375 0.4998964 0.2609404 -0.3083861 0.747642 0.249023
0 1 0 0 0.8254818 0 0.749023 0.247642
0.7047695 1 -0.2565151 0.5458525 0.2609404 -0.2168949 0.749023 0.127358
0 1 0 0 0.8254818 0 0.627358 0.125977
0.75 1 0 0.587116 0.2609404 -0.01712202 0.747642 0.125977
0.7386058 1 -0.1302361 0.5752231 0.2609404 -0.1188135 0.687500 0.186119
0.75 -1 0 0.587116 -0.2609404 0.01712202 0.122642 0.999023
0.75 1 0 0.587116 0.2609404 -0.01712202 0.000977 0.999023
0.7386058 1 0.1302361 0.5811695 0.2609404 0.0850898 0.000977 0.877358
0.75 -1 0 0.587116 -0.2609404 0.01712202 0.124023 0.997642
0.7386058 1 0.1302361 0.5811695 0.2609404 0.0850898 0.002358 0.875977
0.7386058 -1 0.1302361 0.5752231 -0.2609404 0.1188135 0.124023 0.875977
0.7386058 -1 0.1302361 0.5752231 -0.2609404 0.1188135 0.247642 0.999023
0.7386058 1 0.1302361 0.5811695 0.2609404 0.0850898 0.125977 0.999023
0.7047695 1 0.2565151 0.5575646 0.2609404 0.184716 0.125977 0.877358
0.7386058 -1 0.1302361 0.5752231 -0.2609404 0.1188135 0.249023 0.997642
0.7047695 1 0.2565151 0.5575646 0.2609404 0.184716 0.127358 0.875977
0.7047695 -1 0.2565151 0.5458525 -0.2609404 0.2168949 0.249023 0.875977
0.7047695 -1 0.2565151 0.5458525 -0.2609404 0.2168949 0.372642 0.999023
0.7047695 1 0.2565151 0.5575646 0.2609404 0.184716 0.250977 0.999023
0.649519 1 0.375 0.5170183 0.2609404 0.2787299 0.250977 0.877358
0.7047695 -1 0.2565151 0.5458525 -0.2609404 0.2168949 0.374023 0.997642
0.649519 1 0.375 0.5170183 0.2609404 0.2787299 0.252358 0.875977
0.649519 -1 0.375 0.4998964 -0.2609404 0.3083861 0.374023 0.875977
0.649519 -1 0.375 0.4998964 -0.2609404 0.3083861 0.497642 0.999023
0.649519 1 0.375 0.5170183 0.2609404 0.2787299 0.375977 0.999023
0.5745333 1 0.4820907 0.4607628 0.2609404 0.3642747 0.375977 0.877358
0.649519 -1 0.375 0.4998964 -0.2609404 0.3083861 0.499023 0.997642
0.5745333 1 0.4820907 0.4607628 0.2609404 0.3642747 0.377358 0.875977
0.5745333 -1 0.4820907 0.4387511 -0.2609404 0.3905071 0.499023 0.875977
0.5745333 -1 0.4820907 0.4387511 -0.2609404 0.3905071 0.622642 0.999023
0.5745333 1 0.4820907 0.4607628 0.2609404 0.3642747 0.500977 0.999023
0.4820907 1 0.5745333 0.3905071 0.2609404 0.4387511 0.500977 0.877358
0.5745333 -1 0.4820907 0.4387511 -0.2609404 0.3905071 0.624023 0.997642
0.4820907 1 0.5745333 0.3905071 0.2609404 0.4387511 0.502358 0.875977
0.4820907 -1 0.5745333 0.3642747 -0.2609404 0.4607628 0.624023 0.875977
0.4820907 -1 0.5745333 0.3642747 -0.2609404 0.4607628 0.747642 0.999023
0.4820907 1 0.5745333 0.3905071 0.2609404 0.4387511 0.625977 0.999023
0.375 1 0.649519 0.3083861 0.2609404 0.4998964 0.625977 0.877358
0.4820907 -1 0.5745333 0.3642747 -0.2609404 0.4607628 0.749023 0.997642
0.375 1 0.649519 0.3083861 0.2609404 0.4998964 0.627358 0.875977
0.375 -1 0.649519 0.2787299 -0.2609404 0.5170183 0.749023 0.875977
0.375 -1 0.649519 0.2787299 -0.2609404 0.5170183 0.872642 0.999023
0.375 1 0.649519 0.3083861 0.2609404 0.4998964 0.750977 0.999023
0.2565151 1 0.7047695 0.2168949 0.2609404 0.5458525 0.750977 0.877358
0.375 -1 0.649519 0.2787299 -0.2609404 0.5170183 0.874023 0.997642
0.2565151 1 0.7047695 0.2168949 0.2609404 0.5458525 0.752358 0.875977
0.2565151 -1 0.7047695 0.184716 -0.2609404 0.5575646 0.874023 0.875977
0.2565151 -1 0.7047695 0.184716 -0.2609404 0.5575646 0.997642 0.999023
0.2565151 1 0.7047695 0.2168949 0.2609404 0.5458525 0.875977 0.999023
0.1302361 1 0.7386058 0.1188135 0.2609404 0.5752231 0.875977 0.877358
0.2565151 -1 0.7047695 0.184716 -0.2609404 0.5575646 0.999023 0.997642
0.1302361 1 0.7386058 0.1188135 0.2609404 0.5752231 0.877358 0.875977
0.1302361 -1 0.7386058 0.0850898 -0.2609404 0.5811695 0.999023 0.875977
0.1302361 -1 0.7386058 0.0850898 -0.2609404 0.5811695 0.122642 0.874023
0.1302361 1 0.7386058 0.1188135 0.2609404 0.5752231 0.000977 0.874023
4.592426e-17 1 0.75 0.01712202 0.2609404 0.587116 0.000977 0.752358
0.1302361 -1 0.7386058 0.0850898 -0.2609404 0.5811695 0.124023 0.872642
4.592426e-17 1 0.75 0.01712202 0.2609404 0.587116 0.002358 0.750977
4.592426e-17 -1 0.75 -0.01712202 -0.2609404 0.587116 0.124023 0.750977
4.592426e-17 -1 0.75 -0.01712202 -0.2609404 0.587116 0.247642 0.874023
4.592426e-17 1 0.75 0.01712202 0.2609404 0.587116 0.125977 0.874023
-0.1302361 1 0.7386058 -0.0850898 0.2609404 0.5811695 0.125977 0.752358
4.592426e-17 -1 0.75 -0.01712202 -0.2609404 0.587116 0.249023 0.872642
-0.1302361 1 0.7386058 -0.0850898 0.2609404 0.5811695 0.127358 0.750977
-0.1302361 -1 0.7386058 -0.1188135 -0.2609404 0.5752231 0.249023 0.750977
-0.1302361 -1 0.7386058 -0.1188135 -0.2609404 0.5752231 0.372642 0.874023
-0.1302361 1 0.7386058 -0.0850898 0.2609404 0.5811695 0.250977 0.874023
-0.2565151 1 0.7047695 -0.184716 0.2609404 0.5575646 0.250977 0.752358
-0.1302361 -1 0.7386058 -0.1188135 -0.2609404 0.5752231 0.374023 0.872642
-0.2565151 1 0.7047695 -0.184716 0.2609404 0.5575646 0.252358 0.750977
-0.2565151 -1 0.7047695 -0.2168949 -0.2609404 0.5458525 0.374023 0.750977
-0.2565151 -1 0.7047695 -0.2168949 -0.2609404 0.5458525 0.497642 0.874023
-0.2565151 1 0.7047695 -0.184716 0.2609404 0.5575646 0.375977 0.874023
-0.375 1 0.649519 -0.2787299 0.2609404 0.5170183 0.375977 0.752358
-0.2565151 -1 0.7047695 -0.2168949 -0.2609404 0.5458525 0.499023 0.872642
-0.375 1 0.649519 -0.2787299 0.2609404 0.5170183 0.377358 0.750977
-0.375 -1 0.649519 -0.3083861 -0.2609404 0.4998964 0.499023 0.750977
-0.375 -1 0.649519 -0.3083861 -0.2609404 0.4998964 0.622642 0.874023
-0.375 1 0.649519 -0.2787299 0.2609404 0.5170183 0.500977 0.874023
-0.4820907 1 0.5745333 -0.3642747 0.2609404 0.4607628 0.500977 0.752358
-0.375 -1 0.649519 -0.3083861 -0.2609404 0.4998964 0.624023 0.872642
-0.4820907 1 0.5745333 -0.3642747 0.2609404 0.4607628 0.502358 0.750977
-0.4820907 -1 0.5745333 -0.3905071 -0.2609404 0.4387511 0.624023 0.750977
-0.4820907 -1 0.5745333 -0.3905071 -0.2609404 0.4387511 0.747642 0.874023
-0.4820907 1 0.5745333 -0.3642747 0.2609404 0.4607628 0.625977 0.874023
-0.5745333 1 0.4820907 -0.4387511 0.2609404 0.3905071 0.625977 0.752358
-0.4820907 -1 0.5745333 -0.3905071 -0.2609404 0.4387511 0.749023 0.872642
-0.5745333 1 0.4820907 -0.4387511 0.2609404 0.3905071 0.627358 0.750977
-0.5745333 -1 0.4820907 -0.4607628 -0.2609404 0.3642747 0.749023 0.750977
-0.5745333 -1 0.4820907 -0.4607628 -0.2609404 0.3642747 0.872642 0.874023
-0.5745333 1 0.4820907 -0.4387511 0.2609404 0.3905071 0.750977 0.874023
-0.649519 1 0.375 -0.4998964 0.2609404 0.3083861 0.750977 0.752358
-0.5745333 -1 0.4820907 -0.4607628 -0.2609404 0.3642747 0.874023 0.872642
-0.649519 1 0.375 -0.4998964 0.2609404 0.3083861 0.752358 0.750977
-0.649519 -1 0.375 -0.5170183 -0.2609404 0.2787299 0.874023 0.750977
-0.649519 -1 0.375 -0.5170183 -0.2609404 0.2787299 0.997642 0.874023
-0.649519 1 0.375 -0.4998964 0.2609404 0.3083861 0.875977 0.874023
-0.7047695 1 0.2565151 -0.5458525 0.2609404 0.2168949 0.875977 0.752358
-0.649519 -1 0.375 -0.5170183 -0.2609404 0.2787299 0.999023 0.872642
-0.7047695 1 0.2565151 -0.5458525 0.2609404 0.2168949 0.877358 0.750977
-0.7047695 -1 0.2565151 -0.5575646 -0.2609404 0.184716 0.999023 0.750977
-0.7047695 -1 0.2565151 -0.5575646 -0.2609404 0.184716 0.122642 0.749023
-0.7047695 1 0.2565151 -0.5458525 0.2609404 0.2168949 0.000977 0.749023
-0.7386058 1 0.1302361 -0.5752231 0.2609404 0.1188135 0.000977 0.627358
-0.7047695 -1 0.2565151 -0.5575646 -0.2609404 0.184716 0.124023 0.747642
-0.7386058 1 0.1302361 -0.5752231 0.2609404 0.1188135 0.002358 0.625977
-0.7386058 -1 0.1302361 -0.5811695 -0.2609404 0.0850898 0.124023 0.625977
-0.7386058 -1 0.1302361 -0.5811695 -0.2609404 0.0850898 0.247642 0.749023
-0.7386058 1 0.1302361 -0.5752231 0.2609404 0.1188135 0.125977 0.749023
-0.75 1 9.184852e-17 -0.587116 0.2609404 0.01712202 0.125977 0.627358
-0.7386058 -1 0.1302361 -0.5811695 -0.2609404 0.0850898 0.249023 0.747642
-0.75 1 9.184852e-17 -0.587116 0.2609404 0.01712202 0.127358 0.625977
-0.75 -1 9.184852e-17 -0.587116 -0.2609404 -0.01712202 0.249023 0.625977
-0.75 -1 9.184852e-17 -0.587116 -0.2609404 -0.01712202 0.372642 0.749023
-0.75 1 9.184852e-17 -0.587116 0.2609404 0.01712202 0.250977 0.749023
-0.7386058 1 -0.1302361 -0.5811695 0.2609404 -0.0850898 0.250977 0.627358
-0.75 -1 9.184852e-17 -0.587116 -0.2609404 -0.01712202 0.374023 0.747642
-0.7386058 1 -0.1302361 -0.5811695 0.2609404 -0.0850898 0.252358 0.625977
-0.7386058 -1 -0.1302361 -0.5752231 -0.2609404 -0.1188135 0.374023 0.625977
-0.7386058 -1 -0.1302361 -0.5752231 -0.2609404 -0.1188135 0.497642 0.749023
-0.7386058 1 -0.1302361 -0.5811695 0.2609404 -0.0850898 0.375977 0.749023
-0.7047695 1 -0.2565151 -0.5575646 0.2609404 -0.184716 0.375977 0.627358
-0.7386058 -1 -0.1302361 -0.5752231 -0.2609404 -0.1188135 0.499023 0.747642
-0.7047695 1 -0.2565151 -0.5575646 0.2609404 -0.184716 0.377358 0.625977
-0.7047695 -1 -0.2565151 -0.5458525 -0.2609404 -0.2168949 0.499023 0.625977
-0.7047695 -1 -0.2565151 -0.5458525 -0.2609404 -0.2168949 0.622642 0.749023
-0.7047695 1 -0.2565151 -0.5575646 0.2609404 -0.184716 0.500977 0.749023
-0.649519 1 -0.375 -0.5170183 0.2609404 -0.2787299 0.500977 0.627358
-0.7047695 -1 -0.2565151 -0.5458525 -0.2609404 -0.2168949 0.624023 0.747642
-0.649519 1 -0.375 -0.5170183 0.2609404 -0.2787299 0.502358 0.625977
-0.649519 -1 -0.375 -0.4998964 -0.2609404 -0.3083861 0.624023 0.625977
-0.649519 -1 -0.375 -0.4998964 -0.2609404 -0.3083861 0.747642 0.749023
-0.649519 1 -0.375 -0.5170183 0.2609404 -0.2787299 0.625977 0.749023
-0.5745333 1 -0.4820907 -0.4607628 0.2609404 -0.3642747 0.625977 0.627358
-0.649519 -1 -0.375 -0.4998964 -0.2609404 -0.3083861 0.749023 0.747642
-0.5745333 1 -0.4820907 -0.4607628 0.2609404 -0.3642747 0.627358 0.625977
-0.5745333 -1 -0.4820907 -0.4387511 -0.2609404 -0.3905071 0.749023 0.625977
-0.5745333 -1 -0.4820907 -0.4387511 -0.2609404 -0.3905071 0.872642 0.749023
-0.5745333 1 -0.4820907 -0.4607628 0.2609404 -0.3642747 0.750977 0.749023
-0.4820907 1 -0.5745333 -0.3905071 0.2609404 -0.4387511 0.750977 0.627358
-0.5745333 -1 -0.4820907 -0.4387511 -0.2609404 -0.3905071 0.874023 0.747642
-0.4820907 1 -0.5745333 -0.3905071 0.2609404 -0.4387511 0.752358 0.625977
-0.4820907 -1 -0.5745333 -0.3642747 -0.2609404 -0.4607628 0.874023 0.625977
-0.4820907 -1 -0.5745333 -0.3642747 -0.2609404 -0.4607628 0.997642 0.749023
-0.4820907 1 -0.5745333 -0.3905071 0.2609404 -0.4387511 0.875977 0.749023
-0.375 1 -0.649519 -0.3083861 0.2609404 -0.4998964 0.875977 0.627358
-0.4820907 -1 -0.5745333 -0.3642747 -0.2609404 -0.4607628 0.999023 0.747642
-0.375 1 -0.649519 -0.3083861 0.2609404 -0.4998964 0.877358 0.625977
-0.375 -1 -0.649519 -0.2787299 -0.2609404 -0.5170183 0.999023 0.625977
-0.375 -1 -0.649519 -0.2787299 -0.2609404 -0.5170183 0.122642 0.624023
-0.375 1 -0.649519 -0.3083861 0.2609404 -0.4998964 0.000977 0.624023
-0.2565151 1 -0.7047695 -0.2168949 0.2609404 -0.5458525 0.000977 0.502358
-0.375 -1 -0.649519 -0.2787299 -0.2609404 -0.5170183 0.124023 0.622642
-0.2565151 1 -0.7047695 -0.2168949 0.2609404 -0.5458525 0.002358 0.500977
-0.2565151 -1 -0.7047695 -0.184716 -0.2609404 -0.5575646 0.124023 0.500977
-0.2565151 -1 -0.7047695 -0.184716 -0.2609404 -0.5575646 0.247642 0.624023
-0.2565151 1 -0.7047695 -0.2168949 0.2609404 -0.5458525 0.125977 0.624023
-0.1302361 1 -0.7386058 -0.1188135 0.2609404 -0.5752231 0.125977 0.502358
-0.2565151 -1 -0.7047695 -0.184716 -0.2609404 -0.5575646 0.249023 0.622642
-0.1302361 1 -0.7386058 -0.1188135 0.2609404 -0.5752231 0.127358 0.500977
-0.1302361 -1 -0.7386058 -0.0850898 -0.2609404 -0.5811695 0.249023 0.500977
-0.1302361 -1 -0.7386058 -0.0850898 -0.2609404 -0.5811695 0.372642 0.624023
-0.1302361 1 -0.7386058 -0.1188135 0.2609404 -0.5752231 0.250977 0.624023
-1.377728e-16 1 -0.75 -0.01712202 0.2609404 -0.587116 0.250977 0.502358
-0.1302361 -1 -0.7386058 -0.0850898 -0.2609404 -0.5811695 0.374023 0.622642
-1.377728e-16 1 -0.75 -0.01712202 0.2609404 -0.587116 0.252358 0.500977
-1.377728e-16 -1 -0.75 0.01712202 -0.2609404 -0.587116 0.374023 0.500977
-1.377728e-16 -1 -0.75 0.01712202 -0.2609404 -0.587116 0.497642 0.624023
-1.377728e-16 1 -0.75 -0.01712202 0.2609404 -0.587116 0.375977 0.624023
0.1302361 1 -0.7386058 0.0850898 0.2609404 -0.5811695 0.375977 0.502358
-1.377728e-16 -1 -0.75 0.01712202 -0.2609404 -0.587116 0.499023 0.622642
0.1302361 1 -0.7386058 0.0850898 0.2609404 -0.5811695 0.377358 0.500977
0.1302361 -1 -0.7386058 0.1188135 -0.2609404 -0.5752231 0.499023 0.500977
0.1302361 -1 -0.7386058 0.1188135 -0.2609404 -0.5752231 0.622642 0.624023
0.1302361 1 -0.7386058 0.0850898 0.2609404 -0.5811695 0.500977 0.624023
0.2565151 1 -0.7047695 0.184716 0.2609404 -0.5575646 0.500977 0.502358
0.1302361 -1 -0.7386058 0.1188135 -0.2609404 -0.5752231 0.624023 0.622642
0.2565151 1 -0.7047695 0.184716 0.2609404 -0.5575646 0.502358 0.500977
0.2565151 -1 -0.7047695 0.2168949 -0.2609404 -0.5458525 0.624023 0.500977
0.2565151 -1 -0.7047695 0.2168949 -0.2609404 -0.5458525 0.747642 0.624023
0.2565151 1 -0.7047695 0.184716 0.2609404 -0.5575646 0.625977 0.624023
0.375 1 -0.649519 0.2787299 0.2609404 -0.5170183 0.625977 0.502358
0.2565151 -1 -0.7047695 0.2168949 -0.2609404 -0.5458525 0.749023 0.622642
0.375 1 -0.649519 0.2787299 0.2609404 -0.5170183 0.627358 0.500977
0.375 -1 -0.649519 0.3083861 -0.2609404 -0.4998964 0.749023 0.500977
0.375 -1 -0.649519 0.3083861 -0.2609404 -0.4998964 0.872642 0.624023
0.375 1 -0.649519 0.2787299 0.2609404 -0.5170183 0.750977 0.624023
0.4820907 1 -0.5745333 0.3642747 0.2609404 -0.4607628 0.750977 0.502358
0.375 -1 -0.649519 0.3083861 -0.2609404 -0.4998964 0.874023 0.622642
0.4820907 1 -0.5745333 0.3642747 0.2609404 -0.4607628 0.752358 0.500977
0.4820907 -1 -0.5745333 0.3905071 -0.2609404 -0.4387511 0.874023 0.500977
0.4820907 -1 -0.5745333 0.3905071 -0.2609404 -0.4387511 0.997642 0.624023
0.4820907 1 -0.5745333 0.3642747 0.2609404 -0.4607628 0.875977 0.624023
0.5745333 1 -0.4820907 0.4387511 0.2609404 -0.3905071 0.875977 0.502358
0.4820907 -1 -0.5745333 0.3905071 -0.2609404 -0.4387511 0.999023 0.622642
0.5745333 1 -0.4820907 0.4387511 0.2609404 -0.3905071 0.877358 0.500977
0.5745333 -1 -0.4820907 0.4607628 -0.2609404 -0.3642747 0.999023 0.500977
0.5745333 -1 -0.4820907 0.4607628 -0.2609404 -0.3642747 0.122642 0.499023
0.5745333 1 -0.4820907 0.4387511 0.2609404 -0.3905071 0.000977 0.499023
0.649519 1 -0.375 0.4998964 0.2609404 -0.3083861 0.000977 0.377358
0.5745333 -1 -0.4820907 0.4607628 -0.2609404 -0.3642747 0.124023 0.497642
0.649519 1 -0.375 0.4998964 0.2609404 -0.3083861 0.002358 0.375977
0.649519 -1 -0.375 0.5170183 -0.2609404 -0.2787299 0.124023 0.375977
0.649519 -1 -0.375 0.5170183 -0.2609404 -0.2787299 0.247642 0.499023
0.649519 1 -0.375 0.4998964 0.2609404 -0.3083861 0.125977 0.499023
0.7047695 1 -0.2565151 0.5458525 0.2609404 -0.2168949 0.125977 0.377358
0.649519 -1 -0.375 0.5170183 -0.2609404 -0.2787299 0.249023 0.497642
0.7047695 1 -0.2565151 0.5458525 0.2609404 -0.2168949 0.127358 0.375977
0.7047695 -1 -0.2565151 0.5575646 -0.2609404 -0.184716 0.249023 0.375977
0.7047695 -1 -0.2565151 0.5575646 -0.2609404 -0.184716 0.372642 0.499023
0.7047695 1 -0.2565151 0.5458525 0.2609404 -0.2168949 0.250977 0.499023
0.7386058 1 -0.1302361 0.5752231 0.2609404 -0.1188135 0.250977 0.377358
0.7047695 -1 -0.2565151 0.5575646 -0.2609404 -0.184716 0.374023 0.497642
0.7386058 1 -0.1302361 0.5752231 0.2609404 -0.1188135 0.252358 0.375977
0.7386058 -1 -0.1302361 0.5811695 -0.2609404 -0.0850898 0.374023 0.375977
0.7386058 -1 -0.1302361 0.5811695 -0.2609404 -0.0850898 0.497642 0.499023
0.7386058 1 -0.1302361 0.5752231 0.2609404 -0.1188135 0.375977 0.499023
0.75 1 0 0.587116 0.2609404 -0.01712202 0.375977 0.377358
0.7386058 -1 -0.1302361 0.5811695 -0.2609404 -0.0850898 0.499023 0.497642
0.75 1 0 0.587116 0.2609404 -0.01712202 0.377358 0.375977
0.75 -1 0 0.587116 -0.2609404 0.01712202 0.499023 0.375977
3 0 2 3 
3 74 75 4 
3 76 77 5 
3 78 79 6 
3 80 81 7 
3 82 83 8 
3 84 85 9 
3 86 87 10 
3 88 89 11 
3 90 91 12 
3 92 93 13 
3 94 95 14 
3 96 97 15 
3 98 99 16 
3 100 101 17 
3 102 103 18 
3 104 105 19 
3 106 107 20 
3 108 109 21 
3 110 111 22 
3 112 113 23 
3 114 115 24 
3 116 117 25 
3 118 119 26 
3 120 121 27 
3 122 123 28 
3 124 125 29 
3 126 127 30 
3 128 129 31 
3 130 131 32 
3 132 133 33 
3 134 135 34 
3 136 137 35 
3 138 139 36 
3 140 141 37 
3 142 143 144 
3 1 39 38 
3 145 40 146 
3 147 41 148 
3 149 42 150 
3 151 43 152 
3 153 44 154 
3 155 45 156 
3 157 46 158 
3 159 47 160 
3 161 48 162 
3 163 49 164 
3 165 50 166 
3 167 51 168 
3 169 52 170 
3 171 53 172 
3 173 54 174 
3 175 55 176 
3 177 56 178 
3 179 57 180 
3 181 58 182 
3 183 59 184 
3 185 60 186 
3 187 61 188 
3 189 62 190 
3 191 63 192 
3 193 64 194 
3 195 65 196 
3 197 66 198 
3 199 67 200 
3 201 68 202 
3 203 69 204 
3 205 70 206 
3 207 71 208 
3 209 72 210 
3 211 73 212 
3 213 214 215 
3 216 217 218 
3 219 220 221 
3 222 223 224 
3 225 226 227 
3 228 229 230 
3 231 232 233 
3 234 235 236 
3 237 238 239 
3 240 241 242 
3 243 244 245 
3 246 247 248 
3 249 250 251 
3 252 253 254 
3 255 256 257 
3 258 259 260 
3 261 262 263 
3 264 265 266 
3 267 268 269 
3 270 271 272 
3 273 274 275 
3 276 277 278 
3 279 280 281 
3 282 283 284 
3 285 286 287 
3 288 289 290 
3 291 292 293 
3 294 295 296 
3 297 298 299 
3 300 301 302 
3 303 304 305 
3 306 307 308 
3 309 310 311 
3 312 313 314 
3 315 316 317 
3 318 319 320 
3 321 322 323 
3 324 325 326 
3 327 328 329 
3 330 331 332 
3 333 334 335 
3 336 337 338 
3 339 340 341 
3 342 343 344 
3 345 346 347 
3 348 349 350 
3 351 352 353 
3 354 355 356 
3 357 358 359 
3 360 361 362 
3 363 364 365 
3 366 367 368 
3 369 370 371 
3 372 373 374 
3 375 376 377 
3 378 379 380 
3 381 382 383 
3 384 385 386 
3 387 388 389 
3 390 391 392 
3 393 394 395 
3 396 397 398 
3 399 400 401 
3 402 403 404 
3 405 406 407 
3 408 409 410 
3 411 412 413 
3 414 415 416 
3 417 418 419 
3 420 421 422 
3 423 424 425 
3 426 427 428 
3 429 430 431 
