ply
format ascii 1.0
comment VCGLIB generated
element vertex 432
property float x
property float y
property float z
property float nx
property float ny
property float nz
property float texture_u
property float texture_v
element face 144
property list uchar int vertex_indices
end_header
0 -1 0 0 -1 0 0.500977 0.497642
0 1 0 0 1 0 0.625977 0.252358
1 -1 0 0.9483204 -0.3161068 0.0276558 0.500977 0.377358
0.9848077 -1 0.1736482 0.9291109 -0.3161068 0.1919097 0.561119 0.437500
0.9396926 -1 0.3420202 0.8816709 -0.3161068 0.3503326 0.622642 0.499023
0.8660254 -1 0.5 0.8074418 -0.3161068 0.4981108 0.624023 0.377358
0.7660444 -1 0.6427876 0.7086788 -0.3161068 0.6307541 0.502358 0.375977
0.6427876 -1 0.7660444 0.588383 -0.3161068 0.7442324 0.625977 0.497642
0.5 -1 0.8660254 0.4502096 -0.3161068 0.8350975 0.747642 0.499023
0.3420202 -1 0.9396926 0.2983567 -0.3161068 0.9005886 0.749023 0.377358
0.1736482 -1 0.9848077 0.1374386 -0.3161068 0.9387157 0.687500 0.436119
6.123234e-17 -1 1 -0.0276558 -0.3161068 0.9483204 0.750977 0.497642
-0.1736482 -1 0.9848077 -0.1919097 -0.3161068 0.9291109 0.812500 0.438881
-0.3420202 -1 0.9396926 -0.3503326 -0.3161068 0.8816709 0.874023 0.377358
-0.5 -1 0.8660254 -0.4981108 -0.3161068 0.8074418 0.752358 0.375977
-0.6427876 -1 0.7660444 -0.6307541 -0.3161068 0.7086788 0.875977 0.497642
-0.7660444 -1 0.6427876 -0.7442324 -0.3161068 0.588383 0.997642 0.499023
-0.8660254 -1 0.5 -0.8350975 -0.3161068 0.4502096 0.999023 0.377358
-0.9396926 -1 0.3420202 -0.9005886 -0.3161068 0.2983567 0.877358 0.375977
-0.9848077 -1 0.1736482 -0.9387157 -0.3161068 0.1374386 0.061119 0.312500
-1 -1 1.224647e-16 -0.9483204 -0.3161068 -0.0276558 0.122642 0.374023
-0.9848077 -1 -0.1736482 -0.9291109 -0.3161068 -0.1919097 0.063881 0.312500
-0.9396926 -1 -0.3420202 -0.8816709 -0.3161068 -0.3503326 0.002358 0.250977
-0.8660254 -1 -0.5 -0.8074418 -0.3161068 -0.4981108 0.125977 0.372642
-0.7660444 -1 -0.6427876 -0.7086788 -0.3161068 -0.6307541 0.247642 0.374023
-0.6427876 -1 -0.7660444 -0.588383 -0.3161068 -0.7442324 0.249023 0.252358
-0.5 -1 -0.8660254 -0.4502096 -0.3161068 -0.8350975 0.127358 0.250977
-0.3420202 -1 -0.9396926 -0.2983567 -0.3161068 -0.9005886 0.250977 0.372642
-0.1736482 -1 -0.9848077 -0.1374386 -0.3161068 -0.9387157 0.312500 0.313881
-1.83697e-16 -1 -1 0.0276558 -0.3161068 -0.9483204 0.374023 0.252358
0.1736482 -1 -0.9848077 0.1919097 -0.3161068 -0.9291109 0.312500 0.311119
0.3420202 -1 -0.9396926 0.3503326 -0.3161068 -0.8816709 0.375977 0.372642
0.5 -1 -0.8660254 0.4981108 -0.3161068 -0.8074418 0.497642 0.374023
0.6427876 -1 -0.7660444 0.6307541 -0.3161068 -0.7086788 0.499023 0.252358
0.7660444 -1 -0.6427876 0.7442324 -0.3161068 -0.588383 0.377358 0.250977
0.8660254 -1 -0.5 0.8350975 -0.3161068 -0.4502096 0.500977 0.372642
0.9396926 -1 -0.3420202 0.9005886 -0.3161068 -0.2983567 0.622642 0.374023
0.9848077 -1 -0.1736482 0.9387157 -0.3161068 -0.1374386 0.563881 0.312500
1 1 0 0.9483204 0.3161068 -0.0276558 0.625977 0.372642
0.9848077 1 0.1736482 0.9387157 0.3161068 0.1374386 0.686119 0.312500
0.9396926 1 0.3420202 0.9005886 0.3161068 0.2983567 0.627358 0.374023
0.8660254 1 0.5 0.8350975 0.3161068 0.4502096 0.688881 0.312500
0.7660444 1 0.6427876 0.7442324 0.3161068 0.588383 0.687500 0.311119
0.6427876 1 0.7660444 0.6307541 0.3161068 0.7086788 0.811119 0.312500
0.5 1 0.8660254 0.4981108 0.3161068 0.8074418 0.812500 0.313881
0.3420202 1 0.9396926 0.3503326 0.3161068 0.8816709 0.813881 0.312500
0.1736482 1 0.9848077 0.1919097 0.3161068 0.9291109 0.812500 0.311119
6.123234e-17 1 1 0.0276558 0.3161068 0.9483204 0.875977 0.252358
-0.1736482 1 0.9848077 -0.1374386 0.3161068 0.9387157 0.937500 0.313881
-0.3420202 1 0.9396926 -0.2983567 0.3161068 0.9005886 0.999023 0.372642
-0.5 1 0.8660254 -0.4502096 0.3161068 0.8350975 0.937500 0.311119
-0.6427876 1 0.7660444 -0.588383 0.3161068 0.7442324 0.061119 0.187500
-0.7660444 1 0.6427876 -0.7086788 0.3161068 0.6307541 0.062500 0.188881
-0.8660254 1 0.5 -0.8074418 0.3161068 0.4981108 0.063881 0.187500
-0.9396926 1 0.3420202 -0.8816709 0.3161068 0.3503326 0.062500 0.186119
-0.9848077 1 0.1736482 -0.9291109 0.3161068 0.1919097 0.186119 0.187500
-1 1 1.224647e-16 -0.9483204 0.3161068 0.0276558 0.127358 0.249023
-0.9848077 1 -0.1736482 -0.9387157 0.3161068 -0.1374386 0.188881 0.187500
-0.9396926 1 -0.3420202 -0.9005886 0.3161068 -0.2983567 0.247642 0.125977
-0.8660254 1 -0.5 -0.8350975 0.3161068 -0.4502096 0.311119 0.187500
-0.7660444 1 -0.6427876 -0.7442324 0.3161068 -0.588383 0.312500 0.188881
-0.6427876 1 -0.7660444 -0.6307541 0.3161068 -0.7086788 0.313881 0.187500
-0.5 1 -0.8660254 -0.4981108 0.3161068 -0.8074418 0.312500 0.186119
-0.3420202 1 -0.9396926 -0.3503326 0.3161068 -0.8816709 0.436119 0.187500
-0.1736482 1 -0.9848077 -0.1919097 0.3161068 -0.9291109 0.437500 0.188881
-1.83697e-16 1 -1 -0.0276558 0.3161068 -0.9483204 0.499023 0.247642
0.1736482 1 -0.9848077 0.1374386 0.3161068 -0.9387157 0.437500 0.186119
0.3420202 1 -0.9396926 0.2983567 0.3161068 -0.9005886 0.500977 0.127358
0.5 1 -0.8660254 0.4502096 0.3161068 -0.8350975 0.562500 0.188881
0.6427876 1 -0.7660444 0.588383 0.3161068 -0.7442324 0.563881 0.187500
0.7660444 1 -0.6427876 0.7086788 0.3161068 -0.6307541 0.562500 0.186119
0.8660254 1 -0.5 0.8074418 0.3161068 -0.4981108 0.686119 0.187500
0.9396926 1 -0.3420202 0.8816709 0.3161068 -0.3503326 0.687500 0.188881
0.9848077 1 -0.1736482 0.9291109 0.3161068 -0.1919097 0.688881 0.187500
0 -1 0 0 -1 0 0.502358 0.499023
0.9848077 -1 0.1736482 0.9291109 -0.3161068 0.1919097 0.562500 0.438881
0 -1 0 0 -1 0 0.624023 0.497642
0.9396926 -1 0.3420202 0.8816709 -0.3161068 0.3503326 0.563881 0.437500
0 -1 0 0 -1 0 0.622642 0.375977
0.8660254 -1 0.5 0.8074418 -0.3161068 0.4981108 0.562500 0.436119
0 -1 0 0 -1 0 0.625977 0.377358
0.7660444 -1 0.6427876 0.7086788 -0.3161068 0.6307541 0.686119 0.437500
0 -1 0 0 -1 0 0.627358 0.499023
0.6427876 -1 0.7660444 0.588383 -0.3161068 0.7442324 0.687500 0.438881
0 -1 0 0 -1 0 0.749023 0.497642
0.5 -1 0.8660254 0.4502096 -0.3161068 0.8350975 0.688881 0.437500
0 -1 0 0 -1 0 0.627358 0.375977
0.3420202 -1 0.9396926 0.2983567 -0.3161068 0.9005886 0.747642 0.375977
0 -1 0 0 -1 0 0.750977 0.377358
0.1736482 -1 0.9848077 0.1374386 -0.3161068 0.9387157 0.811119 0.437500
0 -1 0 0 -1 0 0.872642 0.499023
6.123234e-17 -1 1 -0.0276558 -0.3161068 0.9483204 0.752358 0.499023
0 -1 0 0 -1 0 0.874023 0.497642
-0.1736482 -1 0.9848077 -0.1919097 -0.3161068 0.9291109 0.813881 0.437500
0 -1 0 0 -1 0 0.872642 0.375977
-0.3420202 -1 0.9396926 -0.3503326 -0.3161068 0.8816709 0.812500 0.436119
0 -1 0 0 -1 0 0.875977 0.377358
-0.5 -1 0.8660254 -0.4981108 -0.3161068 0.8074418 0.936119 0.437500
0 -1 0 0 -1 0 0.877358 0.499023
-0.6427876 -1 0.7660444 -0.6307541 -0.3161068 0.7086788 0.937500 0.438881
0 -1 0 0 -1 0 0.999023 0.497642
-0.7660444 -1 0.6427876 -0.7442324 -0.3161068 0.588383 0.938881 0.437500
0 -1 0 0 -1 0 0.997642 0.375977
-0.8660254 -1 0.5 -0.8350975 -0.3161068 0.4502096 0.937500 0.436119
0 -1 0 0 -1 0 0.000977 0.372642
-0.9396926 -1 0.3420202 -0.9005886 -0.3161068 0.2983567 0.000977 0.252358
0 -1 0 0 -1 0 0.002358 0.374023
-0.9848077 -1 0.1736482 -0.9387157 -0.3161068 0.1374386 0.062500 0.313881
0 -1 0 0 -1 0 0.124023 0.252358
-1 -1 1.224647e-16 -0.9483204 -0.3161068 -0.0276558 0.124023 0.372642
0 -1 0 0 -1 0 0.122642 0.250977
-0.9848077 -1 -0.1736482 -0.9291109 -0.3161068 -0.1919097 0.062500 0.311119
0 -1 0 0 -1 0 0.125977 0.252358
-0.9396926 -1 -0.3420202 -0.8816709 -0.3161068 -0.3503326 0.186119 0.312500
0 -1 0 0 -1 0 0.127358 0.374023
-0.8660254 -1 -0.5 -0.8074418 -0.3161068 -0.4981108 0.187500 0.313881
0 -1 0 0 -1 0 0.249023 0.372642
-0.7660444 -1 -0.6427876 -0.7086788 -0.3161068 -0.6307541 0.188881 0.312500
0 -1 0 0 -1 0 0.247642 0.250977
-0.6427876 -1 -0.7660444 -0.588383 -0.3161068 -0.7442324 0.187500 0.311119
0 -1 0 0 -1 0 0.250977 0.252358
-0.5 -1 -0.8660254 -0.4502096 -0.3161068 -0.8350975 0.311119 0.312500
0 -1 0 0 -1 0 0.372642 0.374023
-0.3420202 -1 -0.9396926 -0.2983567 -0.3161068 -0.9005886 0.252358 0.374023
0 -1 0 0 -1 0 0.374023 0.372642
-0.1736482 -1 -0.9848077 -0.1374386 -0.3161068 -0.9387157 0.313881 0.312500
0 -1 0 0 -1 0 0.252358 0.250977
-1.83697e-16 -1 -1 0.0276558 -0.3161068 -0.9483204 0.372642 0.250977
0 -1 0 0 -1 0 0.375977 0.252358
0.1736482 -1 -0.9848077 0.1919097 -0.3161068 -0.9291109 0.436119 0.312500
0 -1 0 0 -1 0 0.377358 0.374023
0.3420202 -1 -0.9396926 0.3503326 -0.3161068 -0.8816709 0.437500 0.313881
0 -1 0 0 -1 0 0.499023 0.372642
0.5 -1 -0.8660254 0.4981108 -0.3161068 -0.8074418 0.438881 0.312500
0 -1 0 0 -1 0 0.497642 0.250977
0.6427876 -1 -0.7660444 0.6307541 -0.3161068 -0.7086788 0.437500 0.311119
0 -1 0 0 -1 0 0.500977 0.252358
0.7660444 -1 -0.6427876 0.7442324 -0.3161068 -0.588383 0.561119 0.312500
0 -1 0 0 -1 0 0.502358 0.374023
0.8660254 -1 -0.5 0.8350975 -0.3161068 -0.4502096 0.562500 0.313881
0 -1 0 0 -1 0 0.624023 0.252358
0.9396926 -1 -0.3420202 0.9005886 -0.3161068 -0.2983567 0.624023 0.372642
0 -1 0 0 -1 0 0.622642 0.250977
0.9848077 -1 -0.1736482 0.9387157 -0.3161068 -0.1374386 0.562500 0.311119
1 -1 0 0.9483204 -0.3161068 0.0276558 0.502358 0.250977
0 1 0 0 1 0 0.747642 0.374023
0.9848077 1 0.1736482 0.9387157 0.3161068 0.1374386 0.687500 0.313881
0 1 0 0 1 0 0.749023 0.372642
0.9396926 1 0.3420202 0.9005886 0.3161068 0.2983567 0.749023 0.252358
0 1 0 0 1 0 0.747642 0.250977
0.8660254 1 0.5 0.8350975 0.3161068 0.4502096 0.627358 0.250977
0 1 0 0 1 0 0.750977 0.252358
0.7660444 1 0.6427876 0.7442324 0.3161068 0.588383 0.750977 0.372642
0 1 0 0 1 0 0.752358 0.374023
0.6427876 1 0.7660444 0.6307541 0.3161068 0.7086788 0.872642 0.374023
0 1 0 0 1 0 0.874023 0.372642
0.5 1 0.8660254 0.4981108 0.3161068 0.8074418 0.874023 0.252358
0 1 0 0 1 0 0.872642 0.250977
0.3420202 1 0.9396926 0.3503326 0.3161068 0.8816709 0.752358 0.250977
0 1 0 0 1 0 0.875977 0.372642
0.1736482 1 0.9848077 0.1919097 0.3161068 0.9291109 0.936119 0.312500
0 1 0 0 1 0 0.877358 0.374023
6.123234e-17 1 1 0.0276558 0.3161068 0.9483204 0.997642 0.374023
0 1 0 0 1 0 0.999023 0.252358
-0.1736482 1 0.9848077 -0.1374386 0.3161068 0.9387157 0.938881 0.312500
0 1 0 0 1 0 0.997642 0.250977
-0.3420202 1 0.9396926 -0.2983567 0.3161068 0.9005886 0.877358 0.250977
0 1 0 0 1 0 0.000977 0.127358
-0.5 1 0.8660254 -0.4502096 0.3161068 0.8350975 0.000977 0.247642
0 1 0 0 1 0 0.002358 0.249023
-0.6427876 1 0.7660444 -0.588383 0.3161068 0.7442324 0.122642 0.249023
0 1 0 0 1 0 0.124023 0.247642
-0.7660444 1 0.6427876 -0.7086788 0.3161068 0.6307541 0.124023 0.127358
0 1 0 0 1 0 0.122642 0.125977
-0.8660254 1 0.5 -0.8074418 0.3161068 0.4981108 0.002358 0.125977
0 1 0 0 1 0 0.125977 0.127358
-0.9396926 1 0.3420202 -0.8816709 0.3161068 0.3503326 0.125977 0.247642
0 1 0 0 1 0 0.247642 0.249023
-0.9848077 1 0.1736482 -0.9291109 0.3161068 0.1919097 0.187500 0.188881
0 1 0 0 1 0 0.249023 0.247642
-1 1 1.224647e-16 -0.9483204 0.3161068 0.0276558 0.249023 0.127358
0 1 0 0 1 0 0.127358 0.125977
-0.9848077 1 -0.1736482 -0.9387157 0.3161068 -0.1374386 0.187500 0.186119
0 1 0 0 1 0 0.250977 0.127358
-0.9396926 1 -0.3420202 -0.9005886 0.3161068 -0.2983567 0.250977 0.247642
0 1 0 0 1 0 0.252358 0.249023
-0.8660254 1 -0.5 -0.8350975 0.3161068 -0.4502096 0.372642 0.249023
0 1 0 0 1 0 0.374023 0.247642
-0.7660444 1 -0.6427876 -0.7442324 0.3161068 -0.588383 0.374023 0.127358
0 1 0 0 1 0 0.372642 0.125977
-0.6427876 1 -0.7660444 -0.6307541 0.3161068 -0.7086788 0.252358 0.125977
0 1 0 0 1 0 0.375977 0.127358
-0.5 1 -0.8660254 -0.4981108 0.3161068 -0.8074418 0.375977 0.247642
0 1 0 0 1 0 0.377358 0.249023
-0.3420202 1 -0.9396926 -0.3503326 0.3161068 -0.8816709 0.497642 0.249023
0 1 0 0 1 0 0.499023 0.127358
-0.1736482 1 -0.9848077 -0.1919097 0.3161068 -0.9291109 0.438881 0.187500
0 1 0 0 1 0 0.497642 0.125977
-1.83697e-16 1 -1 -0.0276558 0.3161068 -0.9483204 0.377358 0.125977
0 1 0 0 1 0 0.500977 0.247642
0.1736482 1 -0.9848077 0.1374386 0.3161068 -0.9387157 0.561119 0.187500
0 1 0 0 1 0 0.502358 0.249023
0.3420202 1 -0.9396926 0.2983567 0.3161068 -0.9005886 0.622642 0.249023
0 1 0 0 1 0 0.624023 0.247642
0.5 1 -0.8660254 0.4502096 0.3161068 -0.8350975 0.624023 0.127358
0 1 0 0 1 0 0.622642 0.125977
0.6427876 1 -0.7660444 0.588383 0.3161068 -0.7442324 0.502358 0.125977
0 1 0 0 1 0 0.625977 0.127358
0.7660444 1 -0.6427876 0.7086788 0.3161068 -0.6307541 0.625977 0.247642
0 1 0 0 1 0 0.627358 0.249023
0.8660254 1 -0.5 0.8074418 0.3161068 -0.4981108 0.747642 0.249023
0 1 0 0 1 0 0.749023 0.247642
0.9396926 1 -0.3420202 0.8816709 0.3161068 -0.3503326 0.749023 0.127358
0 1 0 0 1 0 0.627358 0.125977
1 1 0 0.9483204 0.3161068 -0.0276558 0.747642 0.125977
0.9848077 1 -0.1736482 0.9291109 0.3161068 -0.1919097 0.687500 0.186119
1 -1 0 0.9483204 -0.3161068 0.0276558 0.122642 0.999023
1 1 0 0.9483204 0.3161068 -0.0276558 0.000977 0.999023
0.9848077 1 0.1736482 0.9387157 0.3161068 0.1374386 0.000977 0.877358
1 -1 0 0.9483204 -0.3161068 0.0276558 0.124023 0.997642
0.9848077 1 0.1736482 0.9387157 0.3161068 0.1374386 0.002358 0.875977
0.9848077 -1 0.1736482 0.9291109 -0.3161068 0.1919097 0.124023 0.875977
0.9848077 -1 0.1736482 0.9291109 -0.3161068 0.1919097 0.247642 0.999023
0.9848077 1 0.1736482 0.9387157 0.3161068 0.1374386 0.125977 0.999023
0.9396926 1 0.3420202 0.9005886 0.3161068 0.2983567 0.125977 0.877358
0.9848077 -1 0.1736482 0.9291109 -0.3161068 0.1919097 0.249023 0.997642
0.9396926 1 0.3420202 0.9005886 0.3161068 0.2983567 0.127358 0.875977
0.9396926 -1 0.3420202 0.8816709 -0.3161068 0.3503326 0.249023 0.875977
0.9396926 -1 0.3420202 0.8816709 -0.3161068 0.3503326 0.372642 0.999023
0.9396926 1 0.3420202 0.9005886 0.3161068 0.2983567 0.250977 0.999023
0.8660254 1 0.5 0.8350975 0.3161068 0.4502096 0.250977 0.877358
0.9396926 -1 0.3420202 0.8816709 -0.3161068 0.3503326 0.374023 0.997642
0.8660254 1 0.5 0.8350975 0.3161068 0.4502096 0.252358 0.875977
0.8660254 -1 0.5 0.8074418 -0.3161068 0.4981108 0.374023 0.875977
0.8660254 -1 0.5 0.8074418 -0.3161068 0.4981108 0.497642 0.999023
0.8660254 1 0.5 0.8350975 0.3161068 0.4502096 0.375977 0.999023
0.7660444 1 0.6427876 0.7442324 0.3161068 0.588383 0.375977 0.877358
0.8660254 -1 0.5 0.8074418 -0.3161068 0.4981108 0.499023 0.997642
0.7660444 1 0.6427876 0.7442324 0.3161068 0.588383 0.377358 0.875977
0.7660444 -1 0.6427876 0.7086788 -0.3161068 0.6307541 0.499023 0.875977
0.7660444 -1 0.6427876 0.7086788 -0.3161068 0.6307541 0.622642 0.999023
0.7660444 1 0.6427876 0.7442324 0.3161068 0.588383 0.500977 0.999023
0.6427876 1 0.7660444 0.6307541 0.3161068 0.7086788 0.500977 0.877358
0.7660444 -1 0.6427876 0.7086788 -0.3161068 0.6307541 0.624023 0.997642
0.6427876 1 0.7660444 0.6307541 0.3161068 0.7086788 0.502358 0.875977
0.6427876 -1 0.7660444 0.588383 -0.3161068 0.7442324 0.624023 0.875977
0.6427876 -1 0.7660444 0.588383 -0.3161068 0.7442324 0.747642 0.999023
0.6427876 1 0.7660444 0.6307541 0.3161068 0.7086788 0.625977 0.999023
0.5 1 0.8660254 0.4981108 0.3161068 0.8074418 0.625977 0.877358
0.6427876 -1 0.7660444 0.588383 -0.3161068 0.7442324 0.749023 0.997642
0.5 1 0.8660254 0.4981108 0.3161068 0.8074418 0.627358 0.875977
0.5 -1 0.8660254 0.4502096 -0.3161068 0.8350975 0.749023 0.875977
0.5 -1 0.8660254 0.4502096 -0.3161068 0.8350975 0.872642 0.999023
0.5 1 0.8660254 0.4981108 0.3161068 0.8074418 0.750977 0.999023
0.3420202 1 0.9396926 0.3503326 0.3161068 0.8816709 0.750977 0.877358
0.5 -1 0.8660254 0.4502096 -0.3161068 0.8350975 0.874023 0.997642
0.3420202 1 0.9396926 0.3503326 0.3161068 0.8816709 0.752358 0.875977
0.3420202 -1 0.9396926 0.2983567 -0.3161068 0.9005886 0.874023 0.875977
0.3420202 -1 0.9396926 0.2983567 -0.3161068 0.9005886 0.997642 0.999023
0.3420202 1 0.9396926 0.3503326 0.3161068 0.8816709 0.875977 0.999023
0.1736482 1 0.9848077 0.1919097 0.3161068 0.9291109 0.875977 0.877358
0.3420202 -1 0.9396926 0.2983567 -0.3161068 0.9005886 0.999023 0.997642
0.1736482 1 0.9848077 0.1919097 0.3161068 0.9291109 0.877358 0.875977
0.1736482 -1 0.9848077 0.1374386 -0.3161068 0.9387157 0.999023 0.875977
0.1736482 -1 0.9848077 0.1374386 -0.3161068 0.9387157 0.122642 0.874023
0.1736482 1 0.9848077 0.1919097 0.3161068 0.9291109 0.000977 0.874023
6.123234e-17 1 1 0.0276558 0.3161068 0.9483204 0.000977 0.752358
0.1736482 -1 0.9848077 0.1374386 -0.3161068 0.9387157 0.124023 0.872642
6.123234e-17 1 1 0.0276558 0.3161068 0.9483204 0.002358 0.750977
6.123234e-17 -1 1 -0.0276558 -0.3161068 0.9483204 0.124023 0.750977
6.123234e-17 -1 1 -0.0276558 -0.3161068 0.9483204 0.247642 0.874023
6.123234e-17 1 1 0.0276558 0.3161068 0.9483204 0.125977 0.874023
-0.1736482 1 0.9848077 -0.1374386 0.3161068 0.9387157 0.125977 0.752358
6.123234e-17 -1 1 -0.0276558 -0.3161068 0.9483204 0.249023 0.872642
-0.1736482 1 0.9848077 -0.1374386 0.3161068 0.9387157 0.127358 0.750977
-0.1736482 -1 0.9848077 -0.1919097 -0.3161068 0.9291109 0.249023 0.750977
-0.1736482 -1 0.9848077 -0.1919097 -0.3161068 0.9291109 0.372642 0.874023
-0.1736482 1 0.9848077 -0.1374386 0.3161068 0.9387157 0.250977 0.874023
-0.3420202 1 0.9396926 -0.2983567 0.3161068 0.9005886 0.250977 0.752358
-0.1736482 -1 0.9848077 -0.1919097 -0.3161068 0.9291109 0.374023 0.872642
-0.3420202 1 0.9396926 -0.2983567 0.3161068 0.9005886 0.252358 0.750977
-0.3420202 -1 0.9396926 -0.3503326 -0.3161068 0.8816709 0.374023 0.750977
-0.3420202 -1 0.9396926 -0.3503326 -0.3161068 0.8816709 0.497642 0.874023
-0.3420202 1 0.9396926 -0.2983567 0.3161068 0.9005886 0.375977 0.874023
-0.5 1 0.8660254 -0.4502096 0.3161068 0.8350975 0.375977 0.752358
-0.3420202 -1 0.9396926 -0.3503326 -0.3161068 0.8816709 0.499023 0.872642
-0.5 1 0.8660254 -0.4502096 0.3161068 0.8350975 0.377358 0.750977
-0.5 -1 0.8660254 -0.4981108 -0.3161068 0.8074418 0.499023 0.750977
-0.5 -1 0.8660254 -0.4981108 -0.3161068 0.8074418 0.622642 0.874023
-0.5 1 0.8660254 -0.4502096 0.3161068 0.8350975 0.500977 0.874023
-0.6427876 1 0.7660444 -0.588383 0.3161068 0.7442324 0.500977 0.752358
-0.5 -1 0.8660254 -0.4981108 -0.3161068 0.8074418 0.624023 0.872642
-0.6427876 1 0.7660444 -0.588383 0.3161068 0.7442324 0.502358 0.750977
-0.6427876 -1 0.7660444 -0.6307541 -0.3161068 0.7086788 0.624023 0.750977
-0.6427876 -1 0.7660444 -0.6307541 -0.3161068 0.7086788 0.747642 0.874023
-0.6427876 1 0.7660444 -0.588383 0.3161068 0.7442324 0.625977 0.874023
-0.7660444 1 0.6427876 -0.7086788 0.3161068 0.6307541 0.625977 0.752358
-0.6427876 -1 0.7660444 -0.6307541 -0.3161068 0.7086788 0.749023 0.872642
-0.7660444 1 0.6427876 -0.7086788 0.3161068 0.6307541 0.627358 0.750977
-0.7660444 -1 0.6427876 -0.7442324 -0.3161068 0.588383 0.749023 0.750977
-0.7660444 -1 0.6427876 -0.7442324 -0.3161068 0.588383 0.872642 0.874023
-0.7660444 1 0.6427876 -0.7086788 0.3161068 0.6307541 0.750977 0.874023
-0.8660254 1 0.5 -0.8074418 0.3161068 0.4981108 0.750977 0.752358
-0.7660444 -1 0.6427876 -0.7442324 -0.3161068 0.588383 0.874023 0.872642
-0.8660254 1 0.5 -0.8074418 0.3161068 0.4981108 0.752358 0.750977
-0.8660254 -1 0.5 -0.8350975 -0.3161068 0.4502096 0.874023 0.750977
-0.8660254 -1 0.5 -0.8350975 -0.3161068 0.4502096 0.997642 0.874023
-0.8660254 1 0.5 -0.8074418 0.3161068 0.4981108 0.875977 0.874023
-0.9396926 1 0.3420202 -0.8816709 0.3161068 0.3503326 0.875977 0.752358
-0.8660254 -1 0.5 -0.8350975 -0.3161068 0.4502096 0.999023 0.872642
-0.9396926 1 0.3420202 -0.8816709 0.3161068 0.3503326 0.877358 0.750977
-0.9396926 -1 0.3420202 -0.9005886 -0.3161068 0.2983567 0.999023 0.750977
-0.9396926 -1 0.3420202 -0.9005886 -0.3161068 0.2983567 0.122642 0.749023
-0.9396926 1 0.3420202 -0.8816709 0.3161068 0.3503326 0.000977 0.749023
-0.9848077 1 0.1736482 -0.9291109 0.3161068 0.1919097 0.000977 0.627358
-0.9396926 -1 0.3420202 -0.9005886 -0.3161068 0.2983567 0.124023 0.747642
-0.9848077 1 0.1736482 -0.9291109 0.3161068 0.1919097 0.002358 0.625977
-0.9848077 -1 0.1736482 -0.9387157 -0.3161068 0.1374386 0.124023 0.625977
-0.9848077 -1 0.1736482 -0.9387157 -0.3161068 0.1374386 0.247642 0.749023
-0.9848077 1 0.1736482 -0.9291109 0.3161068 0.1919097 0.125977 0.749023
-1 1 1.224647e-16 -0.9483204 0.3161068 0.0276558 0.125977 0.627358
-0.9848077 -1 0.1736482 -0.9387157 -0.3161068 0.1374386 0.249023 0.747642
-1 1 1.224647e-16 -0.9483204 0.3161068 0.0276558 0.127358 0.625977
-1 -1 1.224647e-16 -0.9483204 -0.3161068 -0.0276558 0.249023 0.625977
-1 -1 1.224647e-16 -0.9483204 -0.3161068 -0.0276558 0.372642 0.749023
-1 1 1.224647e-16 -0.9483204 0.3161068 0.0276558 0.250977 0.749023
-0.9848077 1 -0.1736482 -0.9387157 0.3161068 -0.1374386 0.250977 0.627358
-1 -1 1.224647e-16 -0.9483204 -0.3161068 -0.0276558 0.374023 0.747642
-0.9848077 1 -0.1736482 -0.9387157 0.3161068 -0.1374386 0.252358 0.625977
-0.9848077 -1 -0.1736482 -0.9291109 -0.3161068 -0.1919097 0.374023 0.625977
-0.9848077 -1 -0.1736482 -0.9291109 -0.3161068 -0.1919097 0.497642 0.749023
-0.9848077 1 -0.1736482 -0.9387157 0.3161068 -0.1374386 0.375977 0.749023
-0.9396926 1 -0.3420202 -0.9005886 0.3161068 -0.2983567 0.375977 0.627358
-0.9848077 -1 -0.1736482 -0.9291109 -0.3161068 -0.1919097 0.499023 0.747642
-0.9396926 1 -0.3420202 -0.9005886 0.3161068 -0.2983567 0.377358 0.625977
-0.9396926 -1 -0.3420202 -0.8816709 -0.3161068 -0.3503326 0.499023 0.625977
-0.9396926 -1 -0.3420202 -0.8816709 -0.3161068 -0.3503326 0.622642 0.749023
-0.9396926 1 -0.3420202 -0.9005886 0.3161068 -0.2983567 0.500977 0.749023
-0.8660254 1 -0.5 -0.8350975 0.3161068 -0.4502096 0.500977 0.627358
-0.9396926 -1 -0.3420202 -0.8816709 -0.3161068 -0.3503326 0.624023 0.747642
-0.8660254 1 -0.5 -0.8350975 0.3161068 -0.4502096 0.502358 0.625977
-0.8660254 -1 -0.5 -0.8074418 -0.3161068 -0.4981108 0.624023 0.625977
-0.8660254 -1 -0.5 -0.8074418 -0.3161068 -0.4981108 0.747642 0.749023
-0.8660254 1 -0.5 -0.8350975 0.3161068 -0.4502096 0.625977 0.749023
-0.7660444 1 -0.6427876 -0.7442324 0.3161068 -0.588383 0.625977 0.627358
-0.8660254 -1 -0.5 -0.8074418 -0.3161068 -0.4981108 0.749023 0.747642
-0.7660444 1 -0.6427876 -0.7442324 0.3161068 -0.588383 0.627358 0.625977
-0.7660444 -1 -0.6427876 -0.7086788 -0.3161068 -0.6307541 0.749023 0.625977
-0.7660444 -1 -0.6427876 -0.7086788 -0.3161068 -0.6307541 0.872642 0.749023
-0.7660444 1 -0.6427876 -0.7442324 0.3161068 -0.588383 0.750977 0.749023
-0.6427876 1 -0.7660444 -0.6307541 0.3161068 -0.7086788 0.750977 0.627358
-0.7660444 -1 -0.6427876 -0.7086788 -0.3161068 -0.6307541 0.874023 0.747642
-0.6427876 1 -0.7660444 -0.6307541 0.3161068 -0.7086788 0.752358 0.625977
-0.6427876 -1 -0.7660444 -0.588383 -0.3161068 -0.7442324 0.874023 0.625977
-0.6427876 -1 -0.7660444 -0.588383 -0.3161068 -0.7442324 0.997642 0.749023
-0.6427876 1 -0.7660444 -0.6307541 0.3161068 -0.7086788 0.875977 0.749023
-0.5 1 -0.8660254 -0.4981108 0.3161068 -0.8074418 0.875977 0.627358
-0.6427876 -1 -0.7660444 -0.588383 -0.3161068 -0.7442324 0.999023 0.747642
-0.5 1 -0.8660254 -0.4981108 0.3161068 -0.8074418 0.877358 0.625977
-0.5 -1 -0.8660254 -0.4502096 -0.3161068 -0.8350975 0.999023 0.625977
-0.5 -1 -0.8660254 -0.4502096 -0.3161068 -0.8350975 0.122642 0.624023
-0.5 1 -0.8660254 -0.4981108 0.3161068 -0.8074418 0.000977 0.624023
-0.3420202 1 -0.9396926 -0.3503326 0.3161068 -0.8816709 0.000977 0.502358
-0.5 -1 -0.8660254 -0.4502096 -0.3161068 -0.8350975 0.124023 0.622642
-0.3420202 1 -0.9396926 -0.3503326 0.3161068 -0.8816709 0.002358 0.500977
-0.3420202 -1 -0.9396926 -0.2983567 -0.3161068 -0.9005886 0.124023 0.500977
-0.3420202 -1 -0.9396926 -0.2983567 -0.3161068 -0.9005886 0.247642 0.624023
-0.3420202 1 -0.9396926 -0.3503326 0.3161068 -0.8816709 0.125977 0.624023
-0.1736482 1 -0.9848077 -0.1919097 0.3161068 -0.9291109 0.125977 0.502358
-0.3420202 -1 -0.9396926 -0.2983567 -0.3161068 -0.9005886 0.249023 0.622642
-0.1736482 1 -0.9848077 -0.1919097 0.3161068 -0.9291109 0.127358 0.500977
-0.1736482 -1 -0.9848077 -0.1374386 -0.3161068 -0.9387157 0.249023 0.500977
-0.1736482 -1 -0.9848077 -0.1374386 -0.3161068 -0.9387157 0.372642 0.624023
-0.1736482 1 -0.9848077 -0.1919097 0.3161068 -0.9291109 0.250977 0.624023
-1.83697e-16 1 -1 -0.0276558 0.3161068 -0.9483204 0.250977 0.502358
-0.1736482 -1 -0.9848077 -0.1374386 -0.3161068 -0.9387157 0.374023 0.622642
-1.83697e-16 1 -1 -0.0276558 0.3161068 -0.9483204 0.252358 0.500977
-1.83697e-16 -1 -1 0.0276558 -0.3161068 -0.9483204 0.374023 0.500977
-1.83697e-16 -1 -1 0.0276558 -0.3161068 -0.9483204 0.497642 0.624023
-1.83697e-16 1 -1 -0.0276558 0.3161068 -0.9483204 0.375977 0.624023
0.1736482 1 -0.9848077 0.1374386 0.3161068 -0.9387157 0.375977 0.502358
-1.83697e-16 -1 -1 0.0276558 -0.3161068 -0.9483204 0.499023 0.622642
0.1736482 1 -0.9848077 0.1374386 0.3161068 -0.9387157 0.377358 0.500977
0.1736482 -1 -0.9848077 0.1919097 -0.3161068 -0.9291109 0.499023 0.500977
0.1736482 -1 -0.9848077 0.1919097 -0.3161068 -0.9291109 0.622642 0.624023
0.1736482 1 -0.9848077 0.1374386 0.3161068 -0.9387157 0.500977 0.624023
0.3420202 1 -0.9396926 0.2983567 0.3161068 -0.9005886 0.500977 0.502358
0.1736482 -1 -0.9848077 0.1919097 -0.3161068 -0.9291109 0.624023 0.622642
0.3420202 1 -0.9396926 0.2983567 0.3161068 -0.9005886 0.502358 0.500977
0.3420202 -1 -0.9396926 0.3503326 -0.3161068 -0.8816709 0.624023 0.500977
0.3420202 -1 -0.9396926 0.3503326 -0.3161068 -0.8816709 0.747642 0.624023
0.3420202 1 -0.9396926 0.2983567 0.3161068 -0.9005886 0.625977 0.624023
0.5 1 -0.8660254 0.4502096 0.3161068 -0.8350975 0.625977 0.502358
0.3420202 -1 -0.9396926 0.3503326 -0.3161068 -0.8816709 0.749023 0.622642
0.5 1 -0.8660254 0.4502096 0.3161068 -0.8350975 0.627358 0.500977
0.5 -1 -0.8660254 0.4981108 -0.3161068 -0.8074418 0.749023 0.500977
0.5 -1 -0.8660254 0.4981108 -0.3161068 -0.8074418 0.872642 0.624023
0.5 1 -0.8660254 0.4502096 0.3161068 -0.8350975 0.750977 0.624023
0.6427876 1 -0.7660444 0.588383 0.3161068 -0.7442324 0.750977 0.502358
0.5 -1 -0.8660254 0.4981108 -0.3161068 -0.8074418 0.874023 0.622642
0.6427876 1 -0.7660444 0.588383 0.3161068 -0.7442324 0.752358 0.500977
0.6427876 -1 -0.7660444 0.6307541 -0.3161068 -0.7086788 0.874023 0.500977
0.6427876 -1 -0.7660444 0.6307541 -0.3161068 -0.7086788 0.997642 0.624023
0.6427876 1 -0.7660444 0.588383 0.3161068 -0.7442324 0.875977 0.624023
0.7660444 1 -0.6427876 0.7086788 0.3161068 -0.6307541 0.875977 0.502358
0.6427876 -1 -0.7660444 0.6307541 -0.3161068 -0.7086788 0.999023 0.622642
0.7660444 1 -0.6427876 0.7086788 0.3161068 -0.6307541 0.877358 0.500977
0.7660444 -1 -0.6427876 0.7442324 -0.3161068 -0.588383 0.999023 0.500977
0.7660444 -1 -0.6427876 0.7442324 -0.3161068 -0.588383 0.122642 0.499023
0.7660444 1 -0.6427876 0.7086788 0.3161068 -0.6307541 0.000977 0.499023
0.8660254 1 -0.5 0.8074418 0.3161068 -0.4981108 0.000977 0.377358
0.7660444 -1 -0.6427876 0.7442324 -0.3161068 -0.588383 0.124023 0.497642
0.8660254 1 -0.5 0.8074418 0.3161068 -0.4981108 0.002358 0.375977
0.8660254 -1 -0.5 0.8350975 -0.3161068 -0.4502096 0.124023 0.375977
0.8660254 -1 -0.5 0.8350975 -0.3161068 -0.4502096 0.247642 0.499023
0.8660254 1 -0.5 0.8074418 0.3161068 -0.4981108 0.125977 0.499023
0.9396926 1 -0.3420202 0.8816709 0.3161068 -0.3503326 0.125977 0.377358
0.8660254 -1 -0.5 0.8350975 -0.3161068 -0.4502096 0.249023 0.497642
0.9396926 1 -0.3420202 0.8816709 0.3161068 -0.3503326 0.127358 0.375977
0.9396926 -1 -0.3420202 0.9005886 -0.3161068 -0.2983567 0.249023 0.375977
0.9396926 -1 -0.3420202 0.9005886 -0.3161068 -0.2983567 0.372642 0.499023
0.9396926 1 -0.3420202 0.8816709 0.3161068 -0.3503326 0.250977 0.499023
0.9848077 1 -0.1736482 0.9291109 0.3161068 -0.1919097 0.250977 0.377358
0.9396926 -1 -0.3420202 0.9005886 -0.3161068 -0.2983567 0.374023 0.497642
0.9848077 1 -0.1736482 0.9291109 0.3161068 -0.1919097 0.252358 0.375977
0.9848077 -1 -0.1736482 0.9387157 -0.3161068 -0.1374386 0.374023 0.375977
0.9848077 -1 -0.1736482 0.9387157 -0.3161068 -0.1374386 0.497642 0.499023
0.9848077 1 -0.1736482 0.9291109 0.3161068 -0.1919097 0.375977 0.499023
1 1 0 0.9483204 0.3161068 -0.0276558 0.375977 0.377358
0.9848077 -1 -0.1736482 0.9387157 -0.3161068 -0.1374386 0.499023 0.497642
1 1 0 0.9483204 0.3161068 -0.0276558 0.377358 0.375977
1 -1 0 0.9483204 -0.3161068 0.0276558 0.499023 0.375977
3 0 2 3 
3 74 75 4 
3 76 77 5 
3 78 79 6 
3 80 81 7 
3 82 83 8 
3 84 85 9 
3 86 87 10 
3 88 89 11 
3 90 91 12 
3 92 93 13 
3 94 95 14 
3 96 97 15 
3 98 99 16 
3 100 101 17 
3 102 103 18 
3 104 105 19 
3 106 107 20 
3 108 109 21 
3 110 111 22 
3 112 113 23 
3 114 115 24 
3 116 117 25 
3 118 119 26 
3 120 121 27 
3 122 123 28 
3 124 125 29 
3 126 127 30 
3 128 129 31 
3 130 131 32 
3 132 133 33 
3 134 135 34 
3 136 137 35 
3 138 139 36 
3 140 141 37 
3 142 143 144 
3 1 39 38 
3 145 40 146 
3 147 41 148 
3 149 42 150 
3 151 43 152 
3 153 44 154 
3 155 45 156 
3 157 46 158 
3 159 47 160 
3 161 48 162 
3 163 49 164 
3 165 50 166 
3 167 51 168 
3 169 52 170 
3 171 53 172 
3 173 54 174 
3 175 55 176 
3 177 56 178 
3 179 57 180 
3 181 58 182 
3 183 59 184 
3 185 60 186 
3 187 61 188 
3 189 62 190 
3 191 63 192 
3 193 64 194 
3 195 65 196 
3 197 66 198 
3 199 67 200 
3 201 68 202 
3 203 69 204 
3 205 70 206 
3 207 71 208 
3 209 72 210 
3 211 73 212 
3 213 214 215 
3 216 217 218 
3 219 220 221 
3 222 223 224 
3 225 226 227 
3 228 229 230 
3 231 232 233 
3 234 235 236 
3 237 238 239 
3 240 241 242 
3 243 244 245 
3 246 247 248 
3 249 250 251 
3 252 253 254 
3 255 256 257 
3 258 259 260 
3 261 262 263 
3 264 265 266 
3 267 268 269 
3 270 271 272 
3 273 274 275 
3 276 277 278 
3 279 280 281 
3 282 283 284 
3 285 286 287 
3 288 289 290 
3 291 292 293 
3 294 295 296 
3 297 298 299 
3 300 301 302 
3 303 304 305 
3 306 307 308 
3 309 310 311 
3 312 313 314 
3 315 316 317 
3 318 319 320 
3 321 322 323 
3 324 325 326 
3 327 328 329 
3 330 331 332 
3 333 334 335 
3 336 337 338 
3 339 340 341 
3 342 343 344 
3 345 346 347 
3 348 349 350 
3 351 352 353 
3 354 355 356 
3 357 358 359 
3 360 361 362 
3 363 364 365 
3 366 367 368 
3 369 370 371 
3 372 373 374 
3 375 376 377 
3 378 379 380 
3 381 382 383 
3 384 385 386 
3 387 388 389 
3 390 391 392 
3 393 394 395 
3 396 397 398 
3 399 400 401 
3 402 403 404 
3 405 406 407 
3 408 409 410 
3 411 412 413 
3 414 415 416 
3 417 418 419 
3 420 421 422 
3 423 424 425 
3 426 427 428 
3 429 430 431 
