ply
format ascii 1.0
comment VCGLIB generated
element vertex 36
property float x
property float y
property float z
property float nx
property float ny
property float nz
property float texture_u
property float texture_v
element face 12
property list uchar int vertex_indices
end_header
-1 -1 -0.0625 -1.355798 -1.355799 -0.08473741 0.000977 0.999023
1 -1 -0.0625 0.9185904 -1.83718 -0.1148238 0.497642 0.999023
-1 1 -0.0625 -1.610681 0.8053405 -0.1006676 0.000977 0.502358
1 1 -0.0625 1.357947 1.357947 -0.04243586 0.499023 0.500977
-1 -1 0.0625 -1.357947 -1.357947 0.04243586 0.002358 0.250977
1 -1 0.0625 1.610681 -0.8053405 0.1006676 0.125000 0.126381
-1 1 0.0625 -0.9185904 1.83718 0.1148238 0.123619 0.375000
1 1 0.0625 1.355798 1.355799 0.08473741 0.500977 0.999023
1 -1 -0.0625 0.9185904 -1.83718 -0.1148238 0.499023 0.997642
-1 1 -0.0625 -1.610681 0.8053405 -0.1006676 0.002358 0.500977
-1 1 -0.0625 -1.610681 0.8053405 -0.1006676 0.247642 0.250977
-1 -1 -0.0625 -1.355798 -1.355799 -0.08473741 0.125000 0.373619
-1 1 -0.0625 -1.610681 0.8053405 -0.1006676 0.000977 0.497642
-1 -1 0.0625 -1.357947 -1.357947 0.04243586 0.000977 0.252358
1 -1 -0.0625 0.9185904 -1.83718 -0.1148238 0.000977 0.247642
-1 -1 0.0625 -1.357947 -1.357947 0.04243586 0.000977 0.002358
-1 -1 -0.0625 -1.355798 -1.355799 -0.08473741 0.123619 0.125000
-1 -1 0.0625 -1.357947 -1.357947 0.04243586 0.247642 0.249023
1 -1 -0.0625 0.9185904 -1.83718 -0.1148238 0.002358 0.249023
-1 1 0.0625 -0.9185904 1.83718 0.1148238 0.500977 0.502358
1 -1 0.0625 1.610681 -0.8053405 0.1006676 0.997642 0.999023
1 -1 0.0625 1.610681 -0.8053405 0.1006676 0.999023 0.997642
-1 1 0.0625 -0.9185904 1.83718 0.1148238 0.502358 0.500977
-1 -1 0.0625 -1.357947 -1.357947 0.04243586 0.999023 0.500977
1 1 -0.0625 1.357947 1.357947 -0.04243586 0.250977 0.497642
-1 1 0.0625 -0.9185904 1.83718 0.1148238 0.250977 0.252358
1 1 0.0625 1.355798 1.355799 0.08473741 0.373619 0.375000
-1 1 0.0625 -0.9185904 1.83718 0.1148238 0.497642 0.499023
1 1 -0.0625 1.357947 1.357947 -0.04243586 0.252358 0.499023
-1 1 -0.0625 -1.610681 0.8053405 -0.1006676 0.375000 0.376381
1 -1 0.0625 1.610681 -0.8053405 0.1006676 0.247642 0.499023
1 1 -0.0625 1.357947 1.357947 -0.04243586 0.002358 0.499023
1 1 0.0625 1.355798 1.355799 0.08473741 0.125000 0.376381
1 1 -0.0625 1.357947 1.357947 -0.04243586 0.249023 0.252358
1 -1 0.0625 1.610681 -0.8053405 0.1006676 0.249023 0.497642
1 -1 -0.0625 0.9185904 -1.83718 -0.1148238 0.126381 0.375000
3 2 1 0 
3 8 9 3 
3 4 10 11 
3 12 13 6 
3 14 15 16 
3 17 18 5 
3 19 20 7 
3 21 22 23 
3 24 25 26 
3 27 28 29 
3 30 31 32 
3 33 34 35 
