ply
format ascii 1.0
comment VCGLIB generated
element vertex 36
property float x
property float y
property float z
property float nx
property float ny
property float nz
property float texture_u
property float texture_v
element face 12
property list uchar int vertex_indices
end_header
-0.75 -0.6 -0.0625 -0.7792207 -0.6233767 -0.06493507 0.000977 0.999023
0.75 -0.6 -0.0625 0.5279433 -0.8447093 -0.08799054 0.497642 0.999023
-0.75 0.6 -0.0625 -0.9257099 0.370284 -0.07714249 0.000977 0.502358
0.75 0.6 -0.0625 0.7804558 0.6243647 -0.032519 0.499023 0.500977
-0.75 -0.6 0.0625 -0.7804558 -0.6243647 0.032519 0.002358 0.250977
0.75 -0.6 0.0625 0.9257099 -0.370284 0.07714249 0.125000 0.126381
-0.75 0.6 0.0625 -0.5279433 0.8447093 0.08799054 0.123619 0.375000
0.75 0.6 0.0625 0.7792207 0.6233767 0.06493507 0.500977 0.999023
0.75 -0.6 -0.0625 0.5279433 -0.8447093 -0.08799054 0.499023 0.997642
-0.75 0.6 -0.0625 -0.9257099 0.370284 -0.07714249 0.002358 0.500977
-0.75 0.6 -0.0625 -0.9257099 0.370284 -0.07714249 0.247642 0.250977
-0.75 -0.6 -0.0625 -0.7792207 -0.6233767 -0.06493507 0.125000 0.373619
-0.75 0.6 -0.0625 -0.9257099 0.370284 -0.07714249 0.000977 0.497642
-0.75 -0.6 0.0625 -0.7804558 -0.6243647 0.032519 0.000977 0.252358
0.75 -0.6 -0.0625 0.5279433 -0.8447093 -0.08799054 0.000977 0.247642
-0.75 -0.6 0.0625 -0.7804558 -0.6243647 0.032519 0.000977 0.002358
-0.75 -0.6 -0.0625 -0.7792207 -0.6233767 -0.06493507 0.123619 0.125000
-0.75 -0.6 0.0625 -0.7804558 -0.6243647 0.032519 0.247642 0.249023
0.75 -0.6 -0.0625 0.5279433 -0.8447093 -0.08799054 0.002358 0.249023
-0.75 0.6 0.0625 -0.5279433 0.8447093 0.08799054 0.500977 0.502358
0.75 -0.6 0.0625 0.9257099 -0.370284 0.07714249 0.997642 0.999023
0.75 -0.6 0.0625 0.9257099 -0.370284 0.07714249 0.999023 0.997642
-0.75 0.6 0.0625 -0.5279433 0.8447093 0.08799054 0.502358 0.500977
-0.75 -0.6 0.0625 -0.7804558 -0.6243647 0.032519 0.999023 0.500977
0.75 0.6 -0.0625 0.7804558 0.6243647 -0.032519 0.250977 0.497642
-0.75 0.6 0.0625 -0.5279433 0.8447093 0.08799054 0.250977 0.252358
0.75 0.6 0.0625 0.7792207 0.6233767 0.06493507 0.373619 0.375000
-0.75 0.6 0.0625 -0.5279433 0.8447093 0.08799054 0.497642 0.499023
0.75 0.6 -0.0625 0.7804558 0.6243647 -0.032519 0.252358 0.499023
-0.75 0.6 -0.0625 -0.9257099 0.370284 -0.07714249 0.375000 0.376381
0.75 -0.6 0.0625 0.9257099 -0.370284 0.07714249 0.247642 0.499023
0.75 0.6 -0.0625 0.7804558 0.6243647 -0.032519 0.002358 0.499023
0.75 0.6 0.0625 0.7792207 0.6233767 0.06493507 0.125000 0.376381
0.75 0.6 -0.0625 0.7804558 0.6243647 -0.032519 0.249023 0.252358
0.75 -0.6 0.0625 0.9257099 -0.370284 0.07714249 0.249023 0.497642
0.75 -0.6 -0.0625 0.5279433 -0.8447093 -0.08799054 0.126381 0.375000
3 2 1 0 
3 8 9 3 
3 4 10 11 
3 12 13 6 
3 14 15 16 
3 17 18 5 
3 19 20 7 
3 21 22 23 
3 24 25 26 
3 27 28 29 
3 30 31 32 
3 33 34 35 
