ply
format ascii 1.0
comment VCGLIB generated
element vertex 24
property float x
property float y
property float z
property float nx
property float ny
property float nz
property float texture_u
property float texture_v
element face 8
property list uchar int vertex_indices
end_header
-1 -1 5 0 -1 0 0.000977 0.999023
0 -1 -5 0 -1 0 0.000977 0.502358
1 -1 5.000002 0 -1 0 0.497642 0.999023
-1 1 4.999998 0 1 0 0.499023 0.500977
1 1 5 0 1 0 0.499023 0.997642
1e-06 1 -5 0 1 0 0.002358 0.500977
-1 -1 5 -0.9950372 1.897882e-07 -0.09950379 0.997642 0.999023
-1 1 4.999998 -0.9950372 1.897882e-07 -0.09950379 0.500977 0.999023
1e-06 1 -5 -0.9950372 1.897882e-07 -0.09950379 0.500977 0.502358
0 -1 -5 -0.9950372 1.897882e-07 -0.09950379 0.999023 0.500977
0 -1 -5 0.9950372 -2.962064e-07 -0.09950367 0.497642 0.499023
1e-06 1 -5 0.9950372 -2.962064e-07 -0.09950367 0.000977 0.499023
1 1 5 0.9950372 -2.962064e-07 -0.09950367 0.000977 0.002358
1 -1 5.000002 0.9950372 -2.962064e-07 -0.09950367 0.499023 0.000977
-1 1 4.999998 -9.536743e-07 9.536743e-07 1 0.500977 0.497642
-1 -1 5 -9.536743e-07 9.536743e-07 1 0.500977 0.250977
1 -1 5.000002 -9.536743e-07 9.536743e-07 1 0.747642 0.250977
1 1 5 -9.536743e-07 9.536743e-07 1 0.500977 0.249023
-1 -1 5 -0.9950372 1.897882e-07 -0.09950379 0.999023 0.997642
1e-06 1 -5 -0.9950372 1.897882e-07 -0.09950379 0.502358 0.500977
0 -1 -5 0.9950372 -2.962064e-07 -0.09950367 0.499023 0.497642
1 1 5 0.9950372 -2.962064e-07 -0.09950367 0.002358 0.000977
-1 1 4.999998 -9.536743e-07 9.536743e-07 1 0.500977 0.002358
1 -1 5.000002 -9.536743e-07 9.536743e-07 1 0.747642 0.249023
3 0 1 2 
3 3 4 5 
3 6 7 8 
3 18 19 9 
3 10 11 12 
3 20 21 13 
3 14 15 16 
3 22 23 17 
