ply
format ascii 1.0
comment VCGLIB generated
element vertex 12
property float x
property float y
property float z
property float nx
property float ny
property float nz
property float texture_u
property float texture_v
element face 4
property list uchar int vertex_indices
end_header
0.2982061 -0.5026157 -0.5130013 0.0853458 -0.1438475 -0.1468198 0.000977 0.999023
-0.6499443 -0.4956023 0.02692507 -0.1860125 -0.1418405 0.007705935 0.000977 0.502358
0.001678461 1.4974 -0.0009304743 0.0004804473 0.4285525 -0.0002663456 0.497642 0.999023
0.3500598 -0.4991824 0.4870068 0.1001863 -0.1428647 0.1393802 0.499023 0.997642
0.2982061 -0.5026157 -0.5130013 0.0853458 -0.1438475 -0.1468198 0.002358 0.500977
0.001678461 1.4974 -0.0009304743 0.0004804473 0.4285525 -0.0002663456 0.499023 0.500977
0.2982061 -0.5026157 -0.5130013 0.0853458 -0.1438475 -0.1468198 0.500977 0.502358
0.3500598 -0.4991824 0.4870068 0.1001863 -0.1428647 0.1393802 0.997642 0.999023
-0.6499443 -0.4956023 0.02692507 -0.1860125 -0.1418405 0.007705935 0.500977 0.999023
0.3500598 -0.4991824 0.4870068 0.1001863 -0.1428647 0.1393802 0.999023 0.500977
0.001678461 1.4974 -0.0009304743 0.0004804473 0.4285525 -0.0002663456 0.999023 0.997642
-0.6499443 -0.4956023 0.02692507 -0.1860125 -0.1418405 0.007705935 0.502358 0.500977
3 0 1 2 
3 4 5 3 
3 6 7 8 
3 9 10 11 
