ply
format ascii 1.0
comment VCGLIB generated
element vertex 24
property float x
property float y
property float z
property float nx
property float ny
property float nz
property float texture_u
property float texture_v
element face 8
property list uchar int vertex_indices
end_header
0.5 -1 -1 0 -0.7937005 0 0.000977 0.502358
-0.5 -1 1 0 -0.7937005 0 0.497642 0.999023
-0.5 -1 -1 0 -0.7937005 0 0.000977 0.999023
0.5 1 -1 0 0.7937005 0 0.002358 0.500977
-0.5 1 -1 0 0.7937005 0 0.499023 0.500977
-0.5 1 1 0 0.7937005 0 0.499023 0.997642
-0.5 -1 -1 -0.3968503 0 0 0.997642 0.999023
-0.5 -1 1 -0.3968503 0 0 0.500977 0.999023
-0.5 1 1 -0.3968503 0 0 0.500977 0.502358
-0.5 1 -1 -0.3968503 0 0 0.999023 0.500977
0.5 -1 -1 0 0 -0.7937005 0.497642 0.499023
-0.5 -1 -1 0 0 -0.7937005 0.000977 0.499023
-0.5 1 -1 0 0 -0.7937005 0.000977 0.002358
0.5 1 -1 0 0 -0.7937005 0.499023 0.000977
-0.5 -1 1 0.2806155 0 0.5612311 0.997642 0.499023
0.5 -1 -1 0.2806155 0 0.5612311 0.500977 0.499023
0.5 1 -1 0.2806155 0 0.5612311 0.500977 0.002358
-0.5 1 1 0.2806155 0 0.5612311 0.999023 0.000977
-0.5 -1 -1 -0.3968503 0 0 0.999023 0.997642
-0.5 1 1 -0.3968503 0 0 0.502358 0.500977
0.5 -1 -1 0 0 -0.7937005 0.499023 0.497642
-0.5 1 -1 0 0 -0.7937005 0.002358 0.000977
-0.5 -1 1 0.2806155 0 0.5612311 0.999023 0.497642
0.5 1 -1 0.2806155 0 0.5612311 0.502358 0.000977
3 0 1 2 
3 3 4 5 
3 6 7 8 
3 18 19 9 
3 10 11 12 
3 20 21 13 
3 14 15 16 
3 22 23 17 
