ply
format ascii 1.0
comment VCGLIB generated
element vertex 24
property float x
property float y
property float z
property float nx
property float ny
property float nz
property float texture_u
property float texture_v
element face 8
property list uchar int vertex_indices
end_header
-6.499999 0.9999998 0.9999998 0 0.9999999 8.742277e-08 0.000977 0.502358
6.499999 1 -0.9999996 0 0.9999999 8.742277e-08 0.497642 0.999023
-6.499999 1 -1 0 0.9999999 8.742277e-08 0.000977 0.999023
-6.499999 -1 0.9999996 0 -0.9999999 -8.742277e-08 0.002358 0.500977
-6.499999 -0.9999998 -1 0 -0.9999999 -8.742277e-08 0.499023 0.500977
6.499999 -0.9999998 -0.9999998 0 -0.9999999 -8.742277e-08 0.499023 0.997642
-6.499999 1 -1 4.371138e-08 8.742278e-08 -1 0.997642 0.999023
6.499999 1 -0.9999996 4.371138e-08 8.742278e-08 -1 0.500977 0.999023
6.499999 -0.9999998 -0.9999998 4.371138e-08 8.742278e-08 -1 0.500977 0.502358
-6.499999 -0.9999998 -1 4.371138e-08 8.742278e-08 -1 0.999023 0.500977
-6.499999 0.9999998 0.9999998 -0.9999999 3.821371e-15 -4.371139e-08 0.497642 0.499023
-6.499999 1 -1 -0.9999999 3.821371e-15 -4.371139e-08 0.000977 0.499023
-6.499999 -0.9999998 -1 -0.9999999 3.821371e-15 -4.371139e-08 0.000977 0.002358
-6.499999 -1 0.9999996 -0.9999999 3.821371e-15 -4.371139e-08 0.499023 0.000977
6.499999 1 -0.9999996 0.9883716 -1.329327e-08 0.1520572 0.997642 0.499023
-6.499999 0.9999998 0.9999998 0.9883716 -1.329327e-08 0.1520572 0.500977 0.499023
-6.499999 -1 0.9999996 0.9883716 -1.329327e-08 0.1520572 0.500977 0.002358
6.499999 -0.9999998 -0.9999998 0.9883716 -1.329327e-08 0.1520572 0.999023 0.000977
-6.499999 1 -1 4.371138e-08 8.742278e-08 -1 0.999023 0.997642
6.499999 -0.9999998 -0.9999998 4.371138e-08 8.742278e-08 -1 0.502358 0.500977
-6.499999 0.9999998 0.9999998 -0.9999999 3.821371e-15 -4.371139e-08 0.499023 0.497642
-6.499999 -0.9999998 -1 -0.9999999 3.821371e-15 -4.371139e-08 0.002358 0.000977
6.499999 1 -0.9999996 0.9883716 -1.329327e-08 0.1520572 0.999023 0.497642
-6.499999 -1 0.9999996 0.9883716 -1.329327e-08 0.1520572 0.502358 0.000977
3 0 1 2 
3 3 4 5 
3 6 7 8 
3 18 19 9 
3 10 11 12 
3 20 21 13 
3 14 15 16 
3 22 23 17 
