ply
format ascii 1.0
comment VCGLIB generated
element vertex 24
property float x
property float y
property float z
property float nx
property float ny
property float nz
property float texture_u
property float texture_v
element face 8
property list uchar int vertex_indices
end_header
-0.9999996 -1 4 -0 -1 0 0.000977 0.502358
0.9999996 -1 -4 -0 -1 0 0.497642 0.999023
1 -1 4 -0 -1 0 0.000977 0.999023
-0.9999996 1 4 0 1 0 0.002358 0.500977
1 1 4 0 1 0 0.499023 0.500977
0.9999996 1 -4 0 1 0 0.499023 0.997642
1 -1 4 1 0 -8.742278e-08 0.997642 0.999023
0.9999996 -1 -4 1 0 -8.742278e-08 0.500977 0.999023
0.9999996 1 -4 1 0 -8.742278e-08 0.500977 0.502358
1 1 4 1 0 -8.742278e-08 0.999023 0.500977
-0.9999996 -1 4 8.742278e-08 0 1 0.497642 0.499023
1 -1 4 8.742278e-08 0 1 0.000977 0.499023
1 1 4 8.742278e-08 0 1 0.000977 0.002358
-0.9999996 1 4 8.742278e-08 0 1 0.499023 0.000977
0.9999996 -1 -4 -0.2425357 0 -0.9701425 0.997642 0.499023
-0.9999996 -1 4 -0.2425357 0 -0.9701425 0.500977 0.499023
-0.9999996 1 4 -0.2425357 0 -0.9701425 0.500977 0.002358
0.9999996 1 -4 -0.2425357 0 -0.9701425 0.999023 0.000977
1 -1 4 1 0 -8.742278e-08 0.999023 0.997642
0.9999996 1 -4 1 0 -8.742278e-08 0.502358 0.500977
-0.9999996 -1 4 8.742278e-08 0 1 0.499023 0.497642
1 1 4 8.742278e-08 0 1 0.002358 0.000977
0.9999996 -1 -4 -0.2425357 0 -0.9701425 0.999023 0.497642
-0.9999996 1 4 -0.2425357 0 -0.9701425 0.502358 0.000977
3 0 1 2 
3 3 4 5 
3 6 7 8 
3 18 19 9 
3 10 11 12 
3 20 21 13 
3 14 15 16 
3 22 23 17 
